<svg version="1.1" viewBox="0.0 0.0 881.0157480314961 734.0" fill="none" stroke="none" stroke-linecap="square" stroke-miterlimit="10" xmlns:xlink="http://www.w3.org/1999/xlink" xmlns="http://www.w3.org/2000/svg"><clipPath id="p.0"><path d="m0 0l881.01575 0l0 734.0l-881.01575 0l0 -734.0z" clip-rule="nonzero"/></clipPath><g clip-path="url(#p.0)"><path fill="#000000" fill-opacity="0.0" d="m0 0l881.01575 0l0 734.0l-881.01575 0z" fill-rule="evenodd"/><path fill="#ffffff" d="m382.3071 43.771652l0 0c0 -13.254833 10.745148 -23.999998 24.0 -23.999998l0 0l0 0c6.3651733 0 12.469666 2.5285645 16.97055 7.029436c4.500885 4.5008736 7.0294495 10.605366 7.0294495 16.970562l0 642.2362c0 13.254822 -10.745178 24.0 -24.0 24.0l0 0l0 0c-13.254852 0 -24.0 -10.745178 -24.0 -24.0z" fill-rule="evenodd"/><path fill="#d9534f" d="m664.11285 159.57742l0 0c13.254822 0 24.0 10.745178 24.0 24.0l0 0l0 0c0 6.365204 -2.5285645 12.469696 -7.029419 16.970566c-4.5008545 4.5008698 -10.605408 7.029434 -16.970581 7.029434l-610.61414 0c-13.254833 0 -24.0 -10.745163 -24.0 -24.0l0 0l0 0c0 -13.254822 10.745167 -24.0 24.0 -24.0z" fill-rule="evenodd"/><path fill="#d9534f" d="m664.11285 262.2546l0 0c13.254822 0 24.0 10.745148 24.0 24.0l0 0l0 0c0 6.3651733 -2.5285645 12.469666 -7.029419 16.97055c-4.5008545 4.500885 -10.605408 7.0294495 -16.970581 7.0294495l-610.61414 0c-13.254833 0 -24.0 -10.745178 -24.0 -24.0l0 0l0 0c0 -13.254852 10.745167 -24.0 24.0 -24.0z" fill-rule="evenodd"/><path fill="#d9534f" d="m822.1076 412.00262l0 0c13.254822 0 24.0 10.745178 24.0 24.0l0 0l0 0c0 6.365204 -2.5285645 12.469696 -7.029419 16.97055c-4.5008545 4.500885 -10.605408 7.0294495 -16.970581 7.0294495l-571.4961 0c-13.254822 0 -24.0 -10.745178 -24.0 -24.0l0 0l0 0c0 -13.254822 10.745178 -24.0 24.0 -24.0z" fill-rule="evenodd"/><path fill="#d9534f" d="m822.1076 514.6798l0 0c13.254822 0 24.0 10.745117 24.0 24.0l0 0l0 0c0 6.3651733 -2.5285645 12.469666 -7.029419 16.97052c-4.5008545 4.5009155 -10.605408 7.02948 -16.970581 7.02948l-571.4961 0c-13.254822 0 -24.0 -10.745178 -24.0 -24.0l0 0l0 0c0 -13.254883 10.745178 -24.0 24.0 -24.0z" fill-rule="evenodd"/><path fill="#d9534f" d="m29.498688 183.57742l0 0c0 -13.254822 10.745167 -24.0 24.0 -24.0l0 0l0 0c6.365196 0 12.469688 2.5285645 16.970566 7.0294495c4.5008698 4.5008698 7.029434 10.605362 7.029434 16.97055l0 102.677185c0 13.254822 -10.745163 24.0 -24.0 24.0l0 0l0 0c-13.254833 0 -24.0 -10.745178 -24.0 -24.0z" fill-rule="evenodd"/><path fill="#d9534f" d="m640.11285 183.57742l0 0c0 -13.254822 10.745178 -24.0 24.0 -24.0l0 0l0 0c6.3651733 0 12.469727 2.5285645 16.970581 7.0294495c4.5008545 4.5008698 7.029419 10.605362 7.029419 16.97055l0 102.677185c0 13.254822 -10.745178 24.0 -24.0 24.0l0 0l0 0c-13.254822 0 -24.0 -10.745178 -24.0 -24.0z" fill-rule="evenodd"/><path fill="#d9534f" d="m798.1076 436.00262l0 0c0 -13.254822 10.745178 -24.0 24.0 -24.0l0 0l0 0c6.3651733 0 12.469727 2.5285645 16.970581 7.0294495c4.5008545 4.5008545 7.029419 10.605347 7.029419 16.97055l0 102.677185c0 13.254822 -10.745178 24.0 -24.0 24.0l0 0l0 0c-13.254822 0 -24.0 -10.745178 -24.0 -24.0z" fill-rule="evenodd"/><path fill="#d9534f" d="m226.61154 436.00262l0 0c0 -13.254822 10.745178 -24.0 24.0 -24.0l0 0l0 0c6.365204 0 12.469696 2.5285645 16.970581 7.0294495c4.5008545 4.5008545 7.029419 10.605347 7.029419 16.97055l0 102.677185c0 13.254822 -10.745148 24.0 -24.0 24.0l0 0l0 0c-13.254822 0 -24.0 -10.745178 -24.0 -24.0z" fill-rule="evenodd"/></g></svg>