<svg version="1.1" viewBox="0.0 0.0 600.7559055118111 601.7007874015748" fill="none" stroke="none" stroke-linecap="square" stroke-miterlimit="10" xmlns:xlink="http://www.w3.org/1999/xlink" xmlns="http://www.w3.org/2000/svg"><clipPath id="p.0"><path d="m0 0l600.7559 0l0 601.7008l-600.7559 0l0 -601.7008z" clip-rule="nonzero"/></clipPath><g clip-path="url(#p.0)"><path fill="#000000" fill-opacity="0.0" d="m0 0l600.7559 0l0 601.7008l-600.7559 0z" fill-rule="evenodd"/><path fill="#ffffff" d="m66.74278 299.4147l0 0c0 -128.20834 104.5045 -232.14174 233.41731 -232.14174l0 0c61.906128 0 121.27673 24.457718 165.051 67.99274c43.77423 43.53502 68.36636 102.58118 68.36636 164.149l0 0c0 128.20834 -104.50452 232.14175 -233.41736 232.14175l0 0c-128.91281 0 -233.41731 -103.93341 -233.41731 -232.14175zm65.26433 0l0 0c0 92.16385 75.28465 166.87741 168.15298 166.87741c92.86835 0 168.15302 -74.71356 168.15302 -166.87741c0 -92.16385 -75.28467 -166.87741 -168.15302 -166.87741l0 0c-92.86833 0 -168.15298 74.71356 -168.15298 166.87741z" fill-rule="evenodd"/><path fill="#d9534f" d="m510.5615 42.839863l0 0c12.750397 -12.750385 33.42282 -12.750385 46.17325 0l0 0l0 0c6.122925 6.1229515 9.562744 14.427456 9.562744 23.086613c0 8.659164 -3.4398193 16.963669 -9.562744 23.086617l-466.99213 466.9921c-12.750381 12.750427 -33.422844 12.750427 -46.173225 0l0 0l0 0c-12.750387 -12.750366 -12.750387 -33.42279 0 -46.173187z" fill-rule="evenodd"/></g></svg>