<svg version="1.1" viewBox="0.0 0.0 410.2178477690289 500.1706036745407" fill="none" stroke="none" stroke-linecap="square" stroke-miterlimit="10" xmlns:xlink="http://www.w3.org/1999/xlink" xmlns="http://www.w3.org/2000/svg"><clipPath id="p.0"><path d="m0 0l410.21783 0l0 500.1706l-410.21783 0l0 -500.1706z" clip-rule="nonzero"/></clipPath><g clip-path="url(#p.0)"><path fill="#000000" fill-opacity="0.0" d="m0 0l410.21783 0l0 500.1706l-410.21783 0z" fill-rule="evenodd"/><path fill="#d9534f" d="m66.87939 220.04199l0 0c-9.3714485 9.371445 -24.562042 9.36792 -33.92914 -0.007873535l0 0l0 0c-4.4982395 -4.502411 -7.024494 -10.60817 -7.023016 -16.974075c0.0014762878 -6.3658905 2.5305634 -12.470474 7.0308933 -16.97081l152.89763 -152.89763c9.371445 -9.3714485 24.562042 -9.367924 33.92914 0.00786972l0 0l0 0c9.367096 9.375797 9.363571 24.573437 -0.007873535 33.94488z" fill-rule="evenodd"/><path fill="#d9534f" d="m358.67453 182.3622l0 0c13.254852 0 23.99295 10.745178 23.984253 24.0l0 0l0 0c-0.004180908 6.365204 -2.5367432 12.469696 -7.040558 16.970566c-4.503845 4.5008698 -10.609985 7.029434 -16.97519 7.029434l-311.74802 0c-13.254837 0 -23.992956 -10.745163 -23.984259 -24.0l0 0l0 0c0.00869751 -13.254822 10.760916 -24.0 24.015753 -24.0z" fill-rule="evenodd"/><path fill="#d9534f" d="m373.94223 186.3412l0 0c9.37146 9.371445 9.36792 24.562027 -0.007873535 33.92914l0 0l0 0c-4.502411 4.49823 -10.608154 7.0244904 -16.97406 7.0230103c-6.365906 -0.0014801025 -12.4704895 -2.5305634 -16.970825 -7.030899l-153.37006 -153.37007c-9.371445 -9.371445 -9.36792 -24.562035 0.007873535 -33.929134l0 0l0 0c9.375793 -9.367096 24.573425 -9.363569 33.944885 0.00787735z" fill-rule="evenodd"/><path fill="#ffffff" d="m339.35562 280.85037l0 0c9.37146 -9.371429 24.562042 -9.36792 33.92914 0.007873535l0 0l0 0c4.49823 4.502411 7.0245056 10.608185 7.0230103 16.97409c-0.0014648438 6.3658752 -2.530548 12.470459 -7.030884 16.970795l-152.89763 152.89764c-9.371445 9.371429 -24.562042 9.36792 -33.92914 -0.007873535l0 0l0 0c-9.367096 -9.375793 -9.363571 -24.573425 0.007873535 -33.944885z" fill-rule="evenodd"/><path fill="#ffffff" d="m47.56048 318.53018l0 0c-13.254837 0 -23.992956 -10.745178 -23.984259 -24.0l0 0l0 0c0.0041770935 -6.365204 2.536747 -12.469696 7.040575 -16.970581c4.503826 -4.5008545 10.609982 -7.029419 16.975178 -7.029419l311.74802 0c13.254822 0 23.99295 10.745148 23.984253 24.0l0 0l0 0c-0.00869751 13.254822 -10.760925 24.0 -24.015747 24.0z" fill-rule="evenodd"/><path fill="#ffffff" d="m32.29277 314.55118l0 0c-9.371447 -9.37146 -9.367922 -24.562042 0.007873535 -33.92914l0 0l0 0c4.5024147 -4.49823 10.60817 -7.0245056 16.974072 -7.0230103c6.365898 0.0014648438 12.470482 2.530548 16.970814 7.030884l153.37007 153.37009c9.371445 9.371429 9.36792 24.562042 -0.007873535 33.92914l0 0l0 0c-9.375793 9.367096 -24.57344 9.363556 -33.944885 -0.007873535z" fill-rule="evenodd"/></g></svg>