<svg version="1.1" viewBox="0.0 0.0 579.9685039370079 527.3700787401575" fill="none" stroke="none" stroke-linecap="square" stroke-miterlimit="10" xmlns:xlink="http://www.w3.org/1999/xlink" xmlns="http://www.w3.org/2000/svg"><clipPath id="p.0"><path d="m0 0l579.9685 0l0 527.37006l-579.9685 0l0 -527.37006z" clip-rule="nonzero"/></clipPath><g clip-path="url(#p.0)"><path fill="#000000" fill-opacity="0.0" d="m0 0l579.9685 0l0 527.37006l-579.9685 0z" fill-rule="evenodd"/><path fill="#d9534f" d="m113.42257 486.90045l0 0c0 15.431976 -12.510086 27.942078 -27.94207 27.942078l-41.407192 0l0 0c-7.410698 0 -14.517876 -2.9439087 -19.75803 -8.1840515c-5.2401543 -5.240143 -8.184044 -12.347321 -8.184044 -19.758026l0 -297.3442c0 -15.431976 12.510092 -27.942078 27.942074 -27.942078l41.407192 0c15.431984 0 27.94207 12.510101 27.94207 27.942078z" fill-rule="evenodd"/><path fill="#d9534f" d="m85.41991 20.283464l0 0c15.369774 0 27.829437 12.459665 27.829437 27.82944l0 27.742695l0 0c0 7.380829 -2.932022 14.459358 -8.151054 19.67839c-5.2190323 5.2190323 -12.297554 8.151047 -19.678383 8.151047l-41.286007 0c-15.369774 0 -27.829437 -12.459663 -27.829437 -27.829437l0 -27.742695c0 -15.369774 12.459663 -27.82944 27.829437 -27.82944z" fill-rule="evenodd"/><path fill="#ffffff" d="m235.70337 20.283464l0 0c15.3697815 0 27.829437 12.459665 27.829437 27.82944l0 27.742695l0 0c0 7.380829 -2.9320068 14.459358 -8.151047 19.67839c-5.21904 5.2190323 -12.297562 8.151047 -19.67839 8.151047l-41.28601 0c-15.369766 0 -27.829437 -12.459663 -27.829437 -27.829437l0 -27.742695c0 -15.369774 12.459671 -27.82944 27.829437 -27.82944z" fill-rule="evenodd"/><path fill="#d9534f" d="m385.98685 20.283464l0 0c15.369751 0 27.829437 12.459665 27.829437 27.82944l0 27.742695l0 0c0 7.380829 -2.9320374 14.459358 -8.151062 19.67839c-5.2190247 5.2190323 -12.297546 8.151047 -19.678375 8.151047l-41.28601 0c-15.3697815 0 -27.829437 -12.459663 -27.829437 -27.829437l0 -27.742695c0 -15.369774 12.459656 -27.82944 27.829437 -27.82944z" fill-rule="evenodd"/><path fill="#ffffff" d="m536.2703 20.283464l0 0c15.369751 0 27.829407 12.459665 27.829407 27.82944l0 27.742695l0 0c0 7.380829 -2.9320068 14.459358 -8.151062 19.67839c-5.218994 5.2190323 -12.297546 8.151047 -19.678345 8.151047l-41.28604 0c-15.369751 0 -27.829437 -12.459663 -27.829437 -27.829437l0 -27.742695c0 -15.369774 12.459686 -27.82944 27.829437 -27.82944z" fill-rule="evenodd"/><path fill="#ffffff" d="m263.70602 486.90045l0 0c0 15.431976 -12.510086 27.942078 -27.942062 27.942078l-41.407196 0l0 0c-7.4106903 0 -14.517868 -2.9439087 -19.758026 -8.1840515c-5.240158 -5.240143 -8.184036 -12.347321 -8.184036 -19.758026l0 -297.3442c0 -15.431976 12.510086 -27.942078 27.942062 -27.942078l41.407196 0c15.431976 0 27.942062 12.510101 27.942062 27.942078z" fill-rule="evenodd"/><path fill="#d9534f" d="m413.9895 486.90045l0 0c0 15.431976 -12.510101 27.942078 -27.942078 27.942078l-41.407196 0l0 0c-7.4107056 0 -14.517853 -2.9439087 -19.758026 -8.1840515c-5.240143 -5.240143 -8.1840515 -12.347321 -8.1840515 -19.758026l0 -297.3442c0 -15.431976 12.510101 -27.942078 27.942078 -27.942078l41.407196 0c15.431976 0 27.942078 12.510101 27.942078 27.942078z" fill-rule="evenodd"/><path fill="#ffffff" d="m564.27295 486.90045l0 0c0 15.431976 -12.510071 27.942078 -27.942078 27.942078l-41.407166 0l0 0c-7.4107056 0 -14.517883 -2.9439087 -19.758026 -8.1840515c-5.2401733 -5.240143 -8.1840515 -12.347321 -8.1840515 -19.758026l0 -297.3442c0 -15.431976 12.510101 -27.942078 27.942078 -27.942078l41.407166 0c15.432007 0 27.942078 12.510101 27.942078 27.942078z" fill-rule="evenodd"/></g></svg>