<svg version="1.1" viewBox="0.0 0.0 514.7795275590552 608.5406824146982" fill="none" stroke="none" stroke-linecap="square" stroke-miterlimit="10" xmlns:xlink="http://www.w3.org/1999/xlink" xmlns="http://www.w3.org/2000/svg"><clipPath id="p.0"><path d="m0 0l514.77954 0l0 608.5407l-514.77954 0l0 -608.5407z" clip-rule="nonzero"/></clipPath><g clip-path="url(#p.0)"><path fill="#000000" fill-opacity="0.0" d="m0 0l514.77954 0l0 608.5407l-514.77954 0z" fill-rule="evenodd"/><path fill="#ffffff" d="m225.2021 54.27559l0 0c0 -18.029705 14.615967 -32.645668 32.645676 -32.645668l0 0l0 0c8.658173 0 16.9617 3.4394455 23.083954 9.561695c6.1222534 6.1222496 9.561707 14.425804 9.561707 23.083973l0 503.4646c0 18.029663 -14.615967 32.64563 -32.64566 32.64563l0 0l0 0c-18.029709 0 -32.645676 -14.615967 -32.645676 -32.64563z" fill-rule="evenodd"/><path fill="#d9534f" d="m462.87103 198.01312l0 0c18.029724 0 32.64569 14.615967 32.64569 32.645676l0 0l0 0c0 8.658157 -3.4394531 16.961716 -9.561707 23.08397c-6.1222534 6.1222534 -14.425812 9.561707 -23.083984 9.561707l-410.04724 0c-18.029705 0 -32.645668 -14.615982 -32.645668 -32.645676l0 0l0 0c0 -18.029709 14.615965 -32.645676 32.645668 -32.645676z" fill-rule="evenodd"/></g></svg>