<svg version="1.1" viewBox="0.0 0.0 735.3149606299213 683.3307086614174" fill="none" stroke="none" stroke-linecap="square" stroke-miterlimit="10" xmlns:xlink="http://www.w3.org/1999/xlink" xmlns="http://www.w3.org/2000/svg"><clipPath id="p.0"><path d="m0 0l735.31494 0l0 683.3307l-735.31494 0l0 -683.3307z" clip-rule="nonzero"/></clipPath><g clip-path="url(#p.0)"><path fill="#000000" fill-opacity="0.0" d="m0 0l735.31494 0l0 683.3307l-735.31494 0z" fill-rule="evenodd"/><path fill="#ffffff" d="m646.97375 460.64304l0 0c0 -18.029724 14.615967 -32.64566 32.64569 -32.64566l0 0l0 0c8.658142 0 16.96167 3.4394226 23.083923 9.561676c6.1222534 6.1222534 9.561707 14.425812 9.561707 23.083984l0 100.75589c0 18.029724 -14.615967 32.64569 -32.64563 32.64569l0 0l0 0c-18.029724 0 -32.64569 -14.615967 -32.64569 -32.64569z" fill-rule="evenodd"/><path fill="#ffffff" d="m712.2645 555.6763l0 0c-0.18151855 55.488403 -45.174072 100.39624 -100.66272 100.47327l-0.08996582 -64.83453c19.799438 -0.02746582 35.8537 -16.051453 35.918518 -35.85083z" fill-rule="evenodd"/><path fill="#ffffff" d="m616.49603 590.7638l0 0c18.029724 0 32.64569 14.615967 32.64569 32.64563l0 0l0 0c0 8.658203 -3.4394531 16.961731 -9.561707 23.083984c-6.1222534 6.1222534 -14.425781 9.561707 -23.083984 9.561707l-496.5354 0c-18.029709 0 -32.645668 -14.615967 -32.645668 -32.64569l0 0l0 0c0 -18.029663 14.615959 -32.64563 32.645668 -32.64563z" fill-rule="evenodd"/><path fill="#ffffff" d="m122.44971 656.05457l0 0c-55.46238 -0.18164062 -100.34908 -45.174194 -100.42599 -100.66284l64.80412 -0.089904785l0 0c0.027412415 19.816162 16.043839 35.883972 35.8339 35.948914z" fill-rule="evenodd"/><path fill="#d9534f" d="m335.58267 53.131233l0 0c0 -18.029705 14.615967 -32.645668 32.64566 -32.645668l0 0l0 0c8.658173 0 16.961731 3.4394436 23.083984 9.561695c6.1222534 6.1222496 9.561707 14.425804 9.561707 23.083973l0 380.9449c0 18.029724 -14.615967 32.64566 -32.64569 32.64566l0 0l0 0c-18.029694 0 -32.64566 -14.615936 -32.64566 -32.64566z" fill-rule="evenodd"/><path fill="#d9534f" d="m518.457 238.23912l0 0c12.750366 -12.750381 33.42285 -12.750381 46.173218 0l0 0l0 0c6.122925 6.1229553 9.562805 14.427444 9.562805 23.086624c0 8.659149 -3.4398804 16.963654 -9.562805 23.086609l-173.5433 173.5433c-12.750397 12.750366 -33.42285 12.750366 -46.17325 0l0 0l0 0c-12.750366 -12.750397 -12.750366 -33.42285 0 -46.173218z" fill-rule="evenodd"/><path fill="#d9534f" d="m170.87164 284.41235l0 0c-12.750381 -12.750397 -12.750381 -33.42285 0 -46.173233l0 0l0 0c6.1229553 -6.1229553 14.42746 -9.56279 23.086624 -9.56279c8.659149 0 16.963654 3.4398346 23.086609 9.56279l173.54332 173.54332c12.750366 12.750366 12.750366 33.42282 0 46.173218l0 0l0 0c-12.750397 12.750366 -33.42285 12.750366 -46.17325 0z" fill-rule="evenodd"/><path fill="#ffffff" d="m22.023623 460.64304l0 0c0 -18.029724 14.615965 -32.64566 32.645668 -32.64566l0 0l0 0c8.658169 0 16.96172 3.4394226 23.083973 9.561676c6.1222534 6.1222534 9.561699 14.425812 9.561699 23.083984l0 100.75589c0 18.029724 -14.615967 32.64569 -32.64567 32.64569l0 0l0 0c-18.029705 0 -32.645668 -14.615967 -32.645668 -32.64569z" fill-rule="evenodd"/></g></svg>