<svg version="1.1" viewBox="0.0 0.0 812.0157480314961 812.501312335958" fill="none" stroke="none" stroke-linecap="square" stroke-miterlimit="10" xmlns:xlink="http://www.w3.org/1999/xlink" xmlns="http://www.w3.org/2000/svg"><clipPath id="p.0"><path d="m0 0l812.01575 0l0 812.50134l-812.01575 0l0 -812.50134z" clip-rule="nonzero"/></clipPath><g clip-path="url(#p.0)"><path fill="#000000" fill-opacity="0.0" d="m0 0l812.01575 0l0 812.50134l-812.01575 0z" fill-rule="evenodd"/><path fill="#5bc0de" d="m0 37.502155l0 0c0 -20.600252 16.699804 -37.300056 37.300056 -37.300056l737.68335 0c9.892578 0 19.380005 3.9298162 26.375122 10.924933c6.995117 6.995117 10.924927 16.482533 10.924927 26.375122l0 737.68335c0 20.60028 -16.699768 37.30005 -37.30005 37.30005l-737.68335 0c-20.600252 0 -37.300056 -16.699768 -37.300056 -37.30005z" fill-rule="evenodd"/><path fill="#ffffff" d="m417.2362 81.3673l0 0c0 -18.029705 14.615967 -32.645668 32.64569 -32.645668l0 0l0 0c8.658173 0 16.961731 3.4394455 23.083954 9.561695c6.1222534 6.1222496 9.561707 14.425808 9.561707 23.083973l0 84.09449c0 18.029709 -14.615967 32.645676 -32.64566 32.645676l0 0l0 0c-18.029724 0 -32.64569 -14.615967 -32.64569 -32.645676z" fill-rule="evenodd"/><path fill="#ffffff" d="m421.03217 94.053894l0 0c-18.038422 0 -32.64734 -14.623016 -32.629944 -32.661415l0 0l0 0c0.008361816 -8.662346 3.4574585 -16.969906 9.588593 -23.095112c6.1311035 -6.125202 14.441986 -9.566307 23.10434 -9.566307l57.637756 0c18.038422 0 32.64734 14.623016 32.629944 32.66142l0 0l0 0c-0.01739502 18.038399 -14.6545105 32.661415 -32.692932 32.661415z" fill-rule="evenodd"/><path fill="#ffffff" d="m714.44824 226.78476l0 0c16.43695 -7.412613 35.76892 -0.09602356 43.179077 16.342056l0 0l0 0c3.5585327 7.8938446 3.8356323 16.878464 0.7704468 24.97731c-3.0651855 8.098846 -9.221558 14.648529 -17.114868 18.20819l-76.665405 34.573883c-16.437012 7.4125977 -35.76892 0.0960083 -43.17914 -16.342072l0 0l0 0c-7.4101562 -16.43808 -0.0925293 -35.77289 16.344482 -43.185486z" fill-rule="evenodd"/><path fill="#ffffff" d="m704.4437 235.45558l0 0c-7.4143677 -16.440979 -0.092163086 -35.769104 16.354614 -43.170593l0 0l0 0c7.8980713 -3.5543213 16.886963 -3.8266907 24.98938 -0.75720215c8.102417 3.0694885 14.654602 9.229401 18.215088 17.12465l23.701355 52.556458l0 0c7.4143677 16.440979 0.092163086 35.769104 -16.354614 43.170593l0 0l0 0c-16.446777 7.4014893 -35.7901 0.073516846 -43.204468 -16.367462z" fill-rule="evenodd"/><path fill="#ffffff" d="m155.22984 470.52344l0 0c-17.499924 4.336975 -35.204666 -6.3330994 -39.54467 -23.832275l0 0l0 0c-2.0841446 -8.403381 -0.744545 -17.289948 3.7240982 -24.704712c4.468643 -7.414795 11.700272 -12.750397 20.104034 -14.833099l81.63507 -20.231445c17.499924 -4.336975 35.20468 6.3330994 39.544678 23.832275l0 0l0 0c4.3399963 17.499146 -6.3282166 35.200836 -23.82814 39.53781z" fill-rule="evenodd"/><path fill="#ffffff" d="m166.63173 463.77563l0 0c4.3399506 17.512268 -6.341812 35.21295 -23.858383 39.535553l0 0l0 0c-8.411743 2.0757751 -17.306877 0.72579956 -24.728569 -3.7529297c-7.421692 -4.47876 -12.762001 -11.719391 -14.846115 -20.12909l-13.858498 -55.92102l0 0c-4.3399353 -17.512268 6.3418274 -35.21295 23.858383 -39.535553l0 0l0 0c17.516556 -4.3226013 35.234756 6.3697205 39.57469 23.882019z" fill-rule="evenodd"/><path fill="#ffffff" d="m535.77313 654.2087l0 0c3.2503662 17.734436 -8.490967 34.747986 -26.224945 38.000793l0 0l0 0c-8.516174 1.5620728 -17.303589 -0.322937 -24.429138 -5.2404175c-7.1255493 -4.9174194 -12.005524 -12.464478 -13.566406 -20.980835l-15.158508 -82.70703c-3.2503662 -17.734436 8.490936 -34.747986 26.224915 -38.000793l0 0l0 0c17.734009 -3.2528687 34.74521 8.486816 37.995575 26.221252z" fill-rule="evenodd"/><path fill="#ffffff" d="m529.75964 642.4158l0 0c17.739624 -3.2523193 34.743225 8.494507 37.9787 26.237244l0 0l0 0c1.5537109 8.520325 -0.34033203 17.312073 -5.265442 24.441223c-4.92511 7.1291504 -12.477844 12.011658 -20.996704 13.573486l-56.70407 10.395752l0 0c-17.739624 3.2522583 -34.743256 -8.494568 -37.9787 -26.237244l0 0l0 0c-3.2354126 -17.742737 8.5225525 -34.762512 26.262146 -38.01477z" fill-rule="evenodd"/><path fill="#ffffff" d="m299.10208 211.7292l0 0c13.992798 11.369141 16.121002 31.930115 4.7535095 45.92424l0 0l0 0c-5.4588623 6.7201843 -13.363495 10.996338 -21.974945 11.887665c-8.61145 0.8913574 -17.224335 -1.6750793 -23.943909 -7.134735l-47.595383 -38.671234c-13.992783 -11.369141 -16.120987 -31.930115 -4.7534943 -45.924225l0 0l0 0c11.367508 -13.99411 31.926071 -16.122086 45.918854 -4.752945z" fill-rule="evenodd"/><path fill="#ffffff" d="m679.5319 540.98914l0 0c13.262878 12.211914 14.1154175 32.86383 1.9042969 46.12732l0 0l0 0c-5.8640137 6.369385 -14.017944 10.148315 -22.66803 10.505371c-8.650024 0.3571167 -17.087708 -2.7368164 -23.456726 -8.601196l-42.99463 -39.58783l0 0c-13.262878 -12.211914 -14.1154175 -32.86383 -1.9042358 -46.12735l0 0l0 0c12.211121 -13.263519 32.861877 -14.116028 46.124695 -1.9041443z" fill-rule="evenodd"/><path fill="#ffffff" d="m429.2758 290.31775l0 0c15.633453 14.389618 16.638062 38.72467 2.243866 54.35388l0 0l0 0c-6.912323 7.505432 -16.523865 11.958405 -26.720215 12.3793335c-10.19632 0.42092896 -20.142212 -3.22464 -27.649658 -10.134796l-1.1815186 -1.0874939l0 0c-15.633453 -14.389587 -16.638062 -38.72467 -2.243866 -54.35388l0 0l0 0c14.394165 -15.629242 38.73639 -16.634155 54.369843 -2.2445374z" fill-rule="evenodd"/><path fill="#ffffff" d="m455.6786 416.68512l0 0c15.064545 13.871643 16.031006 37.32852 2.158661 52.392426l0 0l0 0c-6.661743 7.233917 -15.924408 11.52536 -25.750366 11.930206c-9.825958 0.4048462 -19.410248 -3.110077 -26.6445 -9.771454l-1.1315308 -1.0419312l0 0c-15.064545 -13.871643 -16.031006 -37.32852 -2.1586304 -52.392426l0 0l0 0c13.872345 -15.063873 37.330322 -16.030396 52.394867 -2.1587524z" fill-rule="evenodd"/><path fill="#d9534f" d="m216.46457 373.79266l0 0c0 -128.20836 104.504486 -232.14174 233.41733 -232.14174l0 0c61.906128 0 121.27673 24.457718 165.05096 67.99274c43.77423 43.53502 68.36633 102.58116 68.36633 164.149l0 0c0 128.20831 -104.504456 232.14172 -233.4173 232.14172l0 0c-128.91284 0 -233.41733 -103.93341 -233.41733 -232.14172zm65.26431 0l0 0c0 92.16382 75.28467 166.87738 168.15302 166.87738c92.86835 0 168.15302 -74.71356 168.15302 -166.87738c0 -92.16385 -75.28467 -166.87741 -168.15302 -166.87741l0 0c-92.86835 0 -168.15302 74.71356 -168.15302 166.87741z" fill-rule="evenodd"/><path fill="#d9534f" d="m65.291336 779.6378l0 0c0 18.029663 -14.615963 32.64563 -32.645668 32.64563l0 0l0 0c-8.658169 0 -16.961723 -3.4394531 -23.083973 -9.561707c-6.1222506 -6.1221924 -9.561695 -14.425781 -9.561695 -23.083923l0 -746.9921c0 -18.029705 14.615964 -32.645668 32.645668 -32.645668l0 0l0 0c18.029705 0 32.645668 14.615964 32.645668 32.645668z" fill-rule="evenodd"/><path fill="#d9534f" d="m779.6378 747.2882l0 0c18.029663 0 32.64563 14.615967 32.64563 32.64563l0 0l0 0c0 8.658203 -3.4394531 16.961731 -9.561707 23.083984c-6.1221924 6.1222534 -14.425781 9.561707 -23.083923 9.561707l-746.9921 0c-18.029705 0 -32.645668 -14.615967 -32.645668 -32.64569l0 0l0 0c0 -18.029663 14.615964 -32.64563 32.645668 -32.64563z" fill-rule="evenodd"/></g></svg>