<svg version="1.1" viewBox="0.0 0.0 755.0498687664042 755.501312335958" fill="none" stroke="none" stroke-linecap="square" stroke-miterlimit="10" xmlns:xlink="http://www.w3.org/1999/xlink" xmlns="http://www.w3.org/2000/svg"><clipPath id="p.0"><path d="m0 0l755.04987 0l0 755.50134l-755.04987 0l0 -755.50134z" clip-rule="nonzero"/></clipPath><g clip-path="url(#p.0)"><path fill="#000000" fill-opacity="0.0" d="m0 0l755.04987 0l0 755.50134l-755.04987 0z" fill-rule="evenodd"/><path fill="#292b2c" d="m0 285.97122l0 0c0 -157.82593 127.9432 -285.76913 285.76913 -285.76913l184.52472 0l0 0c75.79068 0 148.4772 30.107733 202.0693 83.69984c53.592102 53.59211 83.69983 126.2786 83.69983 202.06927l0 184.52475c0 157.82593 -127.94318 285.7691 -285.76913 285.7691l-184.52472 0c-157.82593 0 -285.76913 -127.94318 -285.76913 -285.7691z" fill-rule="evenodd"/><path fill="#ffffff" d="m353.96194 83.75838l0 0c0 -18.029701 14.615967 -32.645668 32.64566 -32.645668l0 0l0 0c8.658173 0 16.961731 3.4394455 23.083984 9.561695c6.1222534 6.1222496 9.561707 14.425808 9.561707 23.083973l0 84.0945c0 18.029694 -14.615967 32.64566 -32.64569 32.64566l0 0l0 0c-18.029694 0 -32.64566 -14.615967 -32.64566 -32.64566z" fill-rule="evenodd"/><path fill="#ffffff" d="m357.75787 96.44497l0 0c-18.038391 0 -32.64734 -14.623009 -32.629944 -32.661415l0 0l0 0c0.008361816 -8.662346 3.457489 -16.969906 9.588593 -23.095108c6.1311035 -6.125206 14.441986 -9.566309 23.10434 -9.566309l57.637787 0c18.038391 0 32.64731 14.623014 32.629913 32.661415l0 0l0 0c-0.01739502 18.038406 -14.6545105 32.661415 -32.692932 32.661415z" fill-rule="evenodd"/><path fill="#ffffff" d="m651.17395 229.17583l0 0c16.437012 -7.4125977 35.76892 -0.0960083 43.17914 16.342072l0 0l0 0c3.5584717 7.8938446 3.8356323 16.878433 0.7704468 24.97731c-3.0651855 8.098846 -9.221619 14.648529 -17.11493 18.20819l-76.665405 34.573883c-16.43695 7.4125977 -35.76892 0.0960083 -43.17914 -16.342072l0 0l0 0c-7.4101562 -16.43808 -0.09246826 -35.77289 16.344482 -43.185486z" fill-rule="evenodd"/><path fill="#ffffff" d="m641.1695 237.84665l0 0c-7.4144287 -16.440964 -0.092163086 -35.769104 16.354614 -43.170578l0 0l0 0c7.8980103 -3.5543213 16.886963 -3.826706 24.989319 -0.75720215c8.102417 3.0694885 14.654602 9.229401 18.215088 17.124634l23.701355 52.556473l0 0c7.4143677 16.440948 0.092163086 35.769104 -16.354614 43.170563l0 0l0 0c-16.446777 7.4014893 -35.79004 0.07354736 -43.204407 -16.367432z" fill-rule="evenodd"/><path fill="#ffffff" d="m91.95557 472.91452l0 0c-17.499916 4.336975 -35.20467 -6.3330994 -39.54467 -23.832275l0 0l0 0c-2.0841446 -8.403381 -0.744545 -17.289948 3.7240944 -24.704712c4.468643 -7.414795 11.700283 -12.750397 20.104038 -14.833099l81.63507 -20.231445c17.499924 -4.336975 35.204666 6.3330994 39.544662 23.832245l0 0l0 0c4.3400116 17.499176 -6.3282166 35.200867 -23.828125 39.53784z" fill-rule="evenodd"/><path fill="#ffffff" d="m103.35746 466.16672l0 0c4.3399353 17.512268 -6.3418274 35.21292 -23.858383 39.535522l0 0l0 0c-8.411751 2.0758057 -17.306885 0.7258301 -24.72858 -3.7528992c-7.421692 -4.47876 -12.761997 -11.719391 -14.846111 -20.12909l-13.858496 -55.92102l0 0c-4.339939 -17.512299 6.3418217 -35.21295 23.858381 -39.535553l0 0l0 0c17.516556 -4.3226013 35.23475 6.3697205 39.57469 23.881989z" fill-rule="evenodd"/><path fill="#ffffff" d="m472.49884 656.59973l0 0c3.2503662 17.734497 -8.490936 34.748047 -26.224915 38.000854l0 0l0 0c-8.516174 1.5620728 -17.303589 -0.32299805 -24.429138 -5.2404175c-7.1255493 -4.9174805 -12.005524 -12.464478 -13.566406 -20.980896l-15.158539 -82.70703c-3.2503662 -17.734436 8.490936 -34.747986 26.224945 -38.000793l0 0l0 0c17.733978 -3.2528076 34.74518 8.486816 37.995544 26.221313z" fill-rule="evenodd"/><path fill="#ffffff" d="m466.48535 644.8068l0 0c17.739624 -3.2522583 34.743256 8.494568 37.9787 26.237244l0 0l0 0c1.5537109 8.520325 -0.34033203 17.312134 -5.265442 24.441284c-4.92511 7.1291504 -12.477844 12.011658 -20.996704 13.573425l-56.70407 10.395752l0 0c-17.739594 3.2522583 -34.743225 -8.494568 -37.97867 -26.237244l0 0l0 0c-3.235443 -17.742676 8.522522 -34.76245 26.262146 -38.01471z" fill-rule="evenodd"/><path fill="#ffffff" d="m235.8278 214.12029l0 0c13.992783 11.369125 16.121002 31.930115 4.7534943 45.92421l0 0l0 0c-5.4588623 6.720215 -13.36348 10.996338 -21.974945 11.887695c-8.61145 0.8913574 -17.224335 -1.6750793 -23.943909 -7.134735l-47.595367 -38.67125c-13.992783 -11.369125 -16.120987 -31.9301 -4.7534943 -45.924225l0 0l0 0c11.367508 -13.99411 31.926071 -16.12207 45.918854 -4.7529297z" fill-rule="evenodd"/><path fill="#ffffff" d="m616.2577 543.3802l0 0c13.262817 12.211914 14.115356 32.86383 1.9042358 46.12738l0 0l0 0c-5.8640137 6.369385 -14.017944 10.148254 -22.667969 10.505371c-8.650085 0.35705566 -17.087708 -2.7368774 -23.456787 -8.601257l-42.99463 -39.58777l0 0c-13.262817 -12.211914 -14.1154175 -32.86383 -1.9042358 -46.12738l0 0l0 0c12.211121 -13.263519 32.861877 -14.116058 46.124695 -1.9041443z" fill-rule="evenodd"/><path fill="#ffffff" d="m366.0015 292.70883l0 0c15.633453 14.389587 16.638062 38.72467 2.2438965 54.35388l0 0l0 0c-6.9123535 7.505432 -16.523895 11.958405 -26.720215 12.3793335c-10.19635 0.42092896 -20.142212 -3.2246704 -27.649658 -10.134796l-1.1815186 -1.0874939l0 0c-15.633484 -14.389618 -16.638092 -38.72467 -2.2438965 -54.35388l0 0l0 0c14.394196 -15.629242 38.73642 -16.634155 54.369873 -2.2445679z" fill-rule="evenodd"/><path fill="#ffffff" d="m392.40433 419.07617l0 0c15.064545 13.871643 16.031006 37.328552 2.1586304 52.392426l0 0l0 0c-6.6617126 7.2339478 -15.924408 11.52536 -25.750366 11.930206c-9.825928 0.4048462 -19.410248 -3.1100464 -26.6445 -9.771454l-1.1315002 -1.0419006l0 0c-15.064545 -13.871643 -16.031006 -37.32852 -2.158661 -52.392426l0 0l0 0c13.872345 -15.063904 37.330322 -16.030396 52.394867 -2.1587524z" fill-rule="evenodd"/><path fill="#d9534f" d="m153.19029 376.18372l0 0c0 -128.20833 104.5045 -232.14172 233.41731 -232.14172l0 0c61.906128 0 121.27673 24.457718 165.05096 67.99274c43.77423 43.53502 68.366394 102.58118 68.366394 164.14899l0 0c0 128.20834 -104.50452 232.14172 -233.41736 232.14172l0 0c-128.91281 0 -233.41731 -103.93338 -233.41731 -232.14172zm65.26433 0l0 0c0 92.16385 75.28467 166.87744 168.15298 166.87744c92.86835 0 168.15302 -74.71359 168.15302 -166.87744c0 -92.16385 -75.28467 -166.8774 -168.15302 -166.8774l0 0c-92.86832 0 -168.15298 74.71355 -168.15298 166.8774z" fill-rule="evenodd"/></g></svg>