<svg version="1.1" viewBox="0.0 0.0 387.6666666666667 681.5853018372703" fill="none" stroke="none" stroke-linecap="square" stroke-miterlimit="10" xmlns:xlink="http://www.w3.org/1999/xlink" xmlns="http://www.w3.org/2000/svg"><clipPath id="p.0"><path d="m0 0l387.66666 0l0 681.5853l-387.66666 0l0 -681.5853z" clip-rule="nonzero"/></clipPath><g clip-path="url(#p.0)"><path fill="#000000" fill-opacity="0.0" d="m0 0l387.66666 0l0 681.5853l-387.66666 0z" fill-rule="evenodd"/><path fill="#d9534f" d="m174.62466 276.19684l0 0c17.925339 0 32.456696 14.531372 32.456696 32.456696l0 0l0 0c0 8.608063 -3.4195251 16.863556 -9.506348 22.950348c-6.0868073 6.0868225 -14.342285 9.506348 -22.950348 9.506348l-71.81101 0c-17.925339 0 -32.456696 -14.531342 -32.456696 -32.456696l0 0l0 0c0 -17.925323 14.531357 -32.456696 32.456696 -32.456696z" fill-rule="evenodd"/><path fill="#d9534f" d="m174.62466 160.5853l0 0c17.925339 0 32.456696 14.531357 32.456696 32.456696l0 0l0 0c0 8.6080475 -3.4195251 16.86354 -9.506348 22.950348c-6.0868073 6.0868073 -14.342285 9.506348 -22.950348 9.506348l-71.81101 0c-17.925339 0 -32.456696 -14.531357 -32.456696 -32.456696l0 0l0 0c0 -17.925339 14.531357 -32.456696 32.456696 -32.456696z" fill-rule="evenodd"/><path fill="#ffffff" d="m70.34908 136.31758l0 0c0 -15.107376 12.246948 -27.354324 27.354332 -27.354324l0 0l0 0c7.254814 0 14.212502 2.8819656 19.34243 8.011894c5.1299286 5.129936 8.011894 12.087608 8.011894 19.34243l0 254.20473c0 15.107391 -12.246948 27.35434 -27.354324 27.35434l0 0l0 0c-15.107384 0 -27.354332 -12.246948 -27.354332 -27.35434z" fill-rule="evenodd"/><path fill="#ffffff" d="m303.5977 359.54184l0 0c54.145996 45.935455 74.177826 120.60602 50.29367 187.47452c-23.884125 66.86853 -86.689514 111.951294 -157.68472 113.18872c-70.99522 1.2374268 -135.33353 -41.62921 -161.53345 -107.62482c-26.199928 -65.995544 -8.782463 -141.31885 43.729836 -189.11331l40.51223 44.51123l0 0c-33.985962 30.932556 -45.258545 79.68179 -28.301949 122.394135c16.956589 42.71234 58.596344 70.45563 104.54445 69.654785c45.948105 -0.8009033 86.59573 -29.978455 102.05356 -73.25574c15.457825 -43.277313 2.493225 -91.604095 -32.55005 -121.33353z" fill-rule="evenodd"/><path fill="#ffffff" d="m253.5853 136.42783l0 0c0 -15.168266 12.296326 -27.46457 27.46457 -27.46457l0 0l0 0c7.2840576 0 14.269775 2.8935776 19.42038 8.044182c5.1506042 5.1506042 8.044189 12.13633 8.044189 19.420387l0 249.48032c0 15.168243 -12.296295 27.46457 -27.46457 27.46457l0 0l0 0c-15.168243 0 -27.46457 -12.296326 -27.46457 -27.46457z" fill-rule="evenodd"/><path fill="#ffffff" d="m70.34908 139.12862l0 0c0 -42.766922 22.932564 -82.24981 60.080513 -103.44034c37.14795 -21.190533 82.80618 -20.83431 119.61899 0.93325806c36.812775 21.767567 59.126526 61.603462 58.45923 104.36517l-54.315933 -0.8475952l0 0c0.36289978 -23.255524 -11.772202 -44.919876 -31.79248 -56.75795c-20.020264 -11.838074 -44.851044 -12.031807 -65.05357 -0.5075455c-20.202545 11.524261 -32.674194 32.996628 -32.674194 56.254997z" fill-rule="evenodd"/></g></svg>