<svg version="1.1" viewBox="0.0 0.0 725.2257217847769 630.5275590551181" fill="none" stroke="none" stroke-linecap="square" stroke-miterlimit="10" xmlns:xlink="http://www.w3.org/1999/xlink" xmlns="http://www.w3.org/2000/svg"><clipPath id="p.0"><path d="m0 0l725.2257 0l0 630.5276l-725.2257 0l0 -630.5276z" clip-rule="nonzero"/></clipPath><g clip-path="url(#p.0)"><path fill="#000000" fill-opacity="0.0" d="m0 0l725.2257 0l0 630.5276l-725.2257 0z" fill-rule="evenodd"/><path fill="#d9534f" d="m642.2442 342.97995c74.19464 -67.16751 80.67059 -181.51256 14.534546 -256.63455c-66.13605 -75.122 -180.3346 -83.135925 -256.3058 -17.986343l42.208984 49.262436l0 0c49.02231 -42.059288 122.71979 -36.894997 165.4057 11.590675c42.685852 48.485687 38.51538 122.29501 -9.360291 165.65677z" fill-rule="evenodd"/><path fill="#d9534f" d="m600.6038 292.63776l0 0c12.750366 -12.750397 33.42285 -12.750397 46.173218 0l0 0l0 0c6.122925 6.1229553 9.562805 14.42746 9.562805 23.086609c0 8.65918 -3.4398804 16.963654 -9.562805 23.086609l-260.0315 260.0315c-12.750397 12.750427 -33.42285 12.750427 -46.17325 0l0 0l0 0c-12.750366 -12.750366 -12.750366 -33.42285 0 -46.173218z" fill-rule="evenodd"/><path fill="#d9534f" d="m69.98688 331.84515l0 0c-12.750385 -12.750397 -12.750385 -33.42285 0 -46.17325l0 0l0 0c6.1229477 -6.1229553 14.427452 -9.562775 23.086617 -9.562775c8.659157 0 16.963661 3.4398193 23.086609 9.562775l266.99213 266.99216c12.750397 12.750366 12.750397 33.42279 0 46.173218l0 0l0 0c-12.750366 12.750366 -33.42282 12.750366 -46.173218 0z" fill-rule="evenodd"/><path fill="#ffffff" d="m330.51968 211.1916l0 0c0 -18.029709 14.615967 -32.645676 32.64566 -32.645676l0 0l0 0c8.658173 0 16.961731 3.4394531 23.083984 9.561691c6.1222534 6.1222534 9.561707 14.425812 9.561707 23.083984l0 173.41731c0 18.029724 -14.615967 32.64569 -32.64569 32.64569l0 0l0 0c-18.029694 0 -32.64566 -14.615967 -32.64566 -32.64569z" fill-rule="evenodd"/><path fill="#d9534f" d="m82.78576 342.97995c-73.75018 -66.76517 -80.65675 -180.25058 -15.547775 -255.47382c65.10897 -75.22322 178.36755 -84.61091 254.96317 -21.133186l-40.89273 49.38585l0 0c-49.74106 -41.241478 -123.298615 -35.151558 -165.58987 13.709373c-42.29126 48.860947 -37.81421 122.58276 10.07856 165.95966z" fill-rule="evenodd"/><path fill="#d9534f" d="m257.92047 99.89511l0 0c62.499695 51.74243 155.01913 49.94748 215.3363 -4.177681l-44.644653 -46.819695c-36.042664 31.03286 -90.6449 32.06778 -127.96118 2.4253426z" fill-rule="evenodd"/><path fill="#ffffff" d="m449.87402 265.2546l0 0c18.029694 0 32.64566 14.615936 32.64566 32.64566l0 0l0 0c0 8.658173 -3.4394531 16.961731 -9.561707 23.083954c-6.122223 6.1222534 -14.425781 9.561707 -23.083954 9.561707l-173.41733 0c-18.029694 0 -32.645676 -14.615967 -32.645676 -32.64566l0 0l0 0c0 -18.029724 14.615982 -32.64566 32.645676 -32.64566z" fill-rule="evenodd"/></g></svg>