<svg version="1.1" viewBox="0.0 0.0 672.1706036745406 672.1706036745406" fill="none" stroke="none" stroke-linecap="square" stroke-miterlimit="10" xmlns:xlink="http://www.w3.org/1999/xlink" xmlns="http://www.w3.org/2000/svg"><clipPath id="p.0"><path d="m0 0l672.1706 0l0 672.1706l-672.1706 0l0 -672.1706z" clip-rule="nonzero"/></clipPath><g clip-path="url(#p.0)"><path fill="#000000" fill-opacity="0.0" d="m0 0l672.1706 0l0 672.1706l-672.1706 0z" fill-rule="evenodd"/><path fill="#ffffff" d="m19.832022 334.89502l0 0c0 -173.65225 140.77296 -314.4252 314.4252 -314.4252l0 0c83.39075 0 163.366 33.126846 222.33218 92.09301c58.966125 58.966164 92.09302 138.94144 92.09302 222.33218l0 0c0 173.65222 -140.77298 314.42517 -314.4252 314.42517l0 0c-173.65225 0 -314.4252 -140.77295 -314.4252 -314.42517zm65.91609 0l0 0c0 137.24777 111.261314 248.5091 248.50912 248.5091c137.24777 0 248.50906 -111.26132 248.50906 -248.5091l0 0c0 -137.24779 -111.26129 -248.5091 -248.50906 -248.5091l0 0c-137.2478 0 -248.50912 111.261314 -248.50912 248.5091z" fill-rule="evenodd"/><path fill="#ffffff" d="m301.61154 351.4777l0 0c0 -18.029694 14.615967 -32.64566 32.64569 -32.64566l0 0l0 0c8.658142 0 16.9617 3.4394226 23.083954 9.561676c6.1222534 6.1222534 9.561707 14.425812 9.561707 23.083984l0 117.73227c0 18.029724 -14.615967 32.64569 -32.64566 32.64569l0 0l0 0c-18.029724 0 -32.64569 -14.615967 -32.64569 -32.64569z" fill-rule="evenodd"/><path fill="#ffffff" d="m301.61154 203.1811l0 0c0 -18.029709 14.615967 -32.645676 32.64569 -32.645676l0 0l0 0c8.658142 0 16.9617 3.4394531 23.083954 9.561691c6.1222534 6.1222534 9.561707 14.425812 9.561707 23.083984l0 22.740158c0 18.029694 -14.615967 32.64566 -32.64566 32.64566l0 0l0 0c-18.029724 0 -32.64569 -14.615967 -32.64569 -32.64566z" fill-rule="evenodd"/></g></svg>