<svg version="1.1" viewBox="0.0 0.0 687.0734908136483 713.6220472440945" fill="none" stroke="none" stroke-linecap="square" stroke-miterlimit="10" xmlns:xlink="http://www.w3.org/1999/xlink" xmlns="http://www.w3.org/2000/svg"><clipPath id="p.0"><path d="m0 0l687.0735 0l0 713.6221l-687.0735 0l0 -713.6221z" clip-rule="nonzero"/></clipPath><g clip-path="url(#p.0)"><path fill="#000000" fill-opacity="0.0" d="m0 0l687.0735 0l0 713.6221l-687.0735 0z" fill-rule="evenodd"/><path fill="#ffffff" d="m634.83466 624.7454l0 0c18.029724 0 32.64563 14.615967 32.64563 32.64563l0 0l0 0c0 8.658203 -3.439392 16.961731 -9.5616455 23.083984c-6.1222534 6.1222534 -14.425842 9.561707 -23.083984 9.561707l-581.6063 0c-18.029705 0 -32.645668 -14.615967 -32.645668 -32.64569l0 0l0 0c0 -18.029663 14.615965 -32.64563 32.645668 -32.64563z" fill-rule="evenodd"/><path fill="#d9534f" d="m420.78217 90.56431l0 0c18.029694 0 32.64566 14.615959 32.64566 32.645668l0 0l0 0c0 8.658173 -3.4394531 16.961716 -9.561707 23.08397c-6.1222534 6.1222534 -14.425812 9.561691 -23.083954 9.561691l-367.55908 0c-18.029705 0 -32.64567 -14.615952 -32.64567 -32.64566l0 0l0 0c0 -18.029709 14.615967 -32.645668 32.64567 -32.645668z" fill-rule="evenodd"/><path fill="#d9534f" d="m306.76117 222.43832l0 0c18.029694 0 32.64566 14.615967 32.64566 32.64566l0 0l0 0c0 8.658173 -3.4394531 16.961731 -9.561707 23.083984c-6.1222534 6.1222534 -14.425812 9.561676 -23.083954 9.561676l-253.54332 0c-18.029705 0 -32.645668 -14.615936 -32.645668 -32.64566l0 0l0 0c0 -18.029694 14.615963 -32.64566 32.645668 -32.64566z" fill-rule="evenodd"/><path fill="#d9534f" d="m226.4147 354.31235l0 0c18.029694 0 32.64566 14.615967 32.64566 32.64566l0 0l0 0c0 8.658173 -3.4394379 16.961731 -9.561691 23.083984c-6.1222534 6.122223 -14.425812 9.561676 -23.08397 9.561676l-173.19685 0c-18.029705 0 -32.645668 -14.615967 -32.645668 -32.64566l0 0l0 0c0 -18.029694 14.615963 -32.64566 32.645668 -32.64566z" fill-rule="evenodd"/><path fill="#d9534f" d="m174.61679 486.18634l0 0c18.029709 0 32.645676 14.615967 32.645676 32.64569l0 0l0 0c0 8.658142 -3.4394379 16.961731 -9.561691 23.083984c-6.1222534 6.1222534 -14.425812 9.5616455 -23.083984 9.5616455l-121.38582 0c-18.029705 0 -32.645668 -14.615906 -32.645668 -32.64563l0 0l0 0c0 -18.029724 14.615965 -32.64569 32.645668 -32.64569z" fill-rule="evenodd"/><path fill="#ffffff" d="m20.572178 52.4147l0 0c0 -18.029705 14.615963 -32.645668 32.645668 -32.645668l0 0l0 0c8.658173 0 16.961727 3.4394436 23.083973 9.561695c6.1222534 6.1222515 9.561699 14.425802 9.561699 23.083975l0 604.9764c0 18.029724 -14.615967 32.64569 -32.64567 32.64569l0 0l0 0c-18.029705 0 -32.645668 -14.615967 -32.645668 -32.64569z" fill-rule="evenodd"/></g></svg>