<svg version="1.1" viewBox="0.0 0.0 600.7559055118111 601.7007874015748" fill="none" stroke="none" stroke-linecap="square" stroke-miterlimit="10" xmlns:xlink="http://www.w3.org/1999/xlink" xmlns="http://www.w3.org/2000/svg"><clipPath id="p.0"><path d="m0 0l600.7559 0l0 601.7008l-600.7559 0l0 -601.7008z" clip-rule="nonzero"/></clipPath><g clip-path="url(#p.0)"><path fill="#000000" fill-opacity="0.0" d="m0 0l600.7559 0l0 601.7008l-600.7559 0z" fill-rule="evenodd"/><path fill="#ffffff" d="m20.482939 136.8084l0 0c0 -64.64775 52.696434 -117.055115 117.70079 -117.055115l0 0c31.216187 0 61.15384 12.332558 83.22702 34.28465c22.073181 21.952091 34.47377 51.72552 34.47377 82.77046l0 0c0 64.647766 -52.69644 117.055115 -117.70079 117.055115l0 0c-65.00436 0 -117.70079 -52.40735 -117.70079 -117.055115zm64.61911 0c0 28.95961 23.765472 52.43602 53.08168 52.43602c29.316193 0 53.08168 -23.47641 53.08168 -52.43602c0 -28.959602 -23.765488 -52.436005 -53.08168 -52.436005l0 0c-29.316208 0 -53.08168 23.476402 -53.08168 52.436005z" fill-rule="evenodd"/><path fill="#d9534f" d="m510.5615 42.839863l0 0c12.750397 -12.750385 33.42282 -12.750385 46.17325 0l0 0l0 0c6.122925 6.1229515 9.562744 14.427456 9.562744 23.086613c0 8.659164 -3.4398193 16.963669 -9.562744 23.086617l-466.99213 466.9921c-12.750381 12.750427 -33.422844 12.750427 -46.173225 0l0 0l0 0c-12.750387 -12.750366 -12.750387 -33.42279 0 -46.173187z" fill-rule="evenodd"/><path fill="#ffffff" d="m344.41995 462.03674l0 0c0 -64.647766 52.69644 -117.055115 117.700775 -117.055115l0 0c31.216187 0 61.15387 12.33255 83.22705 34.284637c22.073181 21.952118 34.473755 51.725525 34.473755 82.77048l0 0c0 64.647766 -52.696472 117.055115 -117.700806 117.055115l0 0c-65.00433 0 -117.700775 -52.40735 -117.700775 -117.055115zm64.61911 0c0 28.959625 23.765472 52.436035 53.081665 52.436035c29.316223 0 53.081665 -23.47641 53.081665 -52.436035c0 -28.959595 -23.765442 -52.436005 -53.081665 -52.436005l0 0c-29.316193 0 -53.081665 23.47641 -53.081665 52.436005z" fill-rule="evenodd"/></g></svg>