<svg version="1.1" viewBox="0.0 0.0 600.7559055118111 601.7007874015748" fill="none" stroke="none" stroke-linecap="square" stroke-miterlimit="10" xmlns:xlink="http://www.w3.org/1999/xlink" xmlns="http://www.w3.org/2000/svg"><clipPath id="p.0"><path d="m0 0l600.7559 0l0 601.7008l-600.7559 0l0 -601.7008z" clip-rule="nonzero"/></clipPath><g clip-path="url(#p.0)"><path fill="#000000" fill-opacity="0.0" d="m0 0l600.7559 0l0 601.7008l-600.7559 0z" fill-rule="evenodd"/><path fill="#ffffff" d="m558.8213 509.07907l0 0c-0.14385986 -90.97394 -70.09985 -169.94513 -169.04205 -190.82642l-16.684296 63.313873l0 0c70.256775 13.385864 120.23187 66.37439 120.33911 127.59537z" fill-rule="evenodd"/><path fill="#ffffff" d="m41.934605 509.07907l0 0c0.1438675 -90.97394 70.09987 -169.94513 169.04208 -190.82642l16.684296 63.313873l0 0c-70.25679 13.385864 -120.23189 66.37439 -120.33913 127.59537z" fill-rule="evenodd"/><path fill="#d9534f" d="m113.62205 210.58267l0 0c0 -102.5771 83.61347 -185.73228 186.75592 -185.73228l0 0c49.53073 0 97.03284 19.568167 132.05637 54.399727c35.02353 34.83156 54.699524 82.07329 54.699524 131.33255l0 0c0 102.57712 -83.613464 185.7323 -186.75589 185.7323l0 0c-103.14244 0 -186.75592 -83.15518 -186.75592 -185.7323zm64.34138 0l0 0c0 67.04236 54.806854 121.3909 122.414536 121.3909c67.607666 0 122.41452 -54.34854 122.41452 -121.3909c0 -67.04234 -54.806854 -121.3909 -122.41452 -121.3909l0 0c-67.60768 0 -122.414536 54.348557 -122.414536 121.3909z" fill-rule="evenodd"/><path fill="#ffffff" d="m107.22572 509.3577l0 0c0 17.873138 -14.489052 32.362213 -32.362206 32.362213l-0.5669327 0l0 0c-8.582985 0 -16.814442 -3.409607 -22.883533 -9.478699c-6.069088 -6.069092 -9.478668 -14.300537 -9.478668 -22.883514l0 0l0 0c0 -17.873169 14.489052 -32.362213 32.3622 -32.362213l0.5669327 0l0 0c17.873154 0 32.362206 14.489044 32.362206 32.362213z" fill-rule="evenodd"/><path fill="#ffffff" d="m558.82153 509.3577l0 0c0 17.873138 -14.489075 32.362213 -32.362244 32.362213l-0.56689453 0l0 0c-8.583008 0 -16.814453 -3.409607 -22.883545 -9.478699c-6.069092 -6.069092 -9.478668 -14.300537 -9.478668 -22.883514l0 0l0 0c0 -17.873169 14.489044 -32.362213 32.362213 -32.362213l0.56689453 0l0 0c17.873169 0 32.362244 14.489044 32.362244 32.362213z" fill-rule="evenodd"/></g></svg>