<svg version="1.1" viewBox="0.0 0.0 641.5590551181102 560.2467191601049" fill="none" stroke="none" stroke-linecap="square" stroke-miterlimit="10" xmlns:xlink="http://www.w3.org/1999/xlink" xmlns="http://www.w3.org/2000/svg"><clipPath id="p.0"><path d="m0 0l641.5591 0l0 560.2467l-641.5591 0l0 -560.2467z" clip-rule="nonzero"/></clipPath><g clip-path="url(#p.0)"><path fill="#000000" fill-opacity="0.0" d="m0 0l641.5591 0l0 560.2467l-641.5591 0z" fill-rule="evenodd"/><path fill="#d9534f" d="m103.191605 19.779528l0 0c18.029701 0 32.64566 14.615965 32.64566 32.645668l0 0l0 0c0 8.658169 -3.4394379 16.96172 -9.561691 23.083973c-6.122246 6.1222534 -14.425804 9.561699 -23.08397 9.561699l-48.251972 0l0 0c-18.029705 0 -32.645668 -14.615967 -32.645668 -32.64567l0 0l0 0c0 -18.029705 14.615965 -32.645668 32.645668 -32.645668z" fill-rule="evenodd"/><path fill="#d9534f" d="m587.2021 19.779528l0 0c18.029724 0 32.64569 14.615965 32.64569 32.645668l0 0l0 0c0 8.658169 -3.4394531 16.96172 -9.561707 23.083973c-6.1222534 6.1222534 -14.425781 9.561699 -23.083984 9.561699l-367.55902 0c-18.029709 0 -32.645676 -14.615967 -32.645676 -32.64567l0 0l0 0c0 -18.029705 14.615967 -32.645668 32.645676 -32.645668z" fill-rule="evenodd"/><path fill="#d9534f" d="m103.191605 132.4252l0 0c18.029701 0 32.64566 14.615967 32.64566 32.64566l0 0l0 0c0 8.658173 -3.4394379 16.961731 -9.561691 23.083984c-6.122246 6.122238 -14.425804 9.561691 -23.08397 9.561691l-48.251972 0l0 0c-18.029705 0 -32.645668 -14.615967 -32.645668 -32.645676l0 0l0 0c0 -18.029694 14.615965 -32.64566 32.645668 -32.64566z" fill-rule="evenodd"/><path fill="#d9534f" d="m587.2021 132.4252l0 0c18.029724 0 32.64569 14.615967 32.64569 32.64566l0 0l0 0c0 8.658173 -3.4394531 16.961731 -9.561707 23.083984c-6.1222534 6.122238 -14.425781 9.561691 -23.083984 9.561691l-367.55902 0c-18.029709 0 -32.645676 -14.615967 -32.645676 -32.645676l0 0l0 0c0 -18.029694 14.615967 -32.64566 32.645676 -32.64566z" fill-rule="evenodd"/><path fill="#ffffff" d="m100.115486 245.07086l0 0c18.029701 0 32.645668 14.615967 32.645668 32.64566l0 0l0 0c0 8.658173 -3.4394379 16.961731 -9.561691 23.083984c-6.1222534 6.1222534 -14.425804 9.561707 -23.083977 9.561707l-48.25197 0l0 0c-18.029705 0 -32.645668 -14.615967 -32.645668 -32.64569l0 0l0 0c0 -18.029694 14.615965 -32.64566 32.645668 -32.64566z" fill-rule="evenodd"/><path fill="#ffffff" d="m584.126 245.07086l0 0c18.029724 0 32.64569 14.615967 32.64569 32.64566l0 0l0 0c0 8.658173 -3.4394531 16.961731 -9.561707 23.083984c-6.1222534 6.1222534 -14.425781 9.561707 -23.083984 9.561707l-367.55905 0c-18.029694 0 -32.64566 -14.615967 -32.64566 -32.64569l0 0l0 0c0 -18.029694 14.615967 -32.64566 32.64566 -32.64566z" fill-rule="evenodd"/><path fill="#ffffff" d="m103.191605 357.71652l0 0c18.029701 0 32.64566 14.615967 32.64566 32.64569l0 0l0 0c0 8.658173 -3.4394379 16.9617 -9.561691 23.083954c-6.122246 6.1222534 -14.425804 9.561707 -23.08397 9.561707l-48.251972 0l0 0c-18.029705 0 -32.645668 -14.615967 -32.645668 -32.64566l0 0l0 0c0 -18.029724 14.615965 -32.64569 32.645668 -32.64569z" fill-rule="evenodd"/><path fill="#ffffff" d="m587.2021 357.71652l0 0c18.029724 0 32.64569 14.615967 32.64569 32.64569l0 0l0 0c0 8.658173 -3.4394531 16.9617 -9.561707 23.083954c-6.1222534 6.1222534 -14.425781 9.561707 -23.083984 9.561707l-367.55902 0c-18.029709 0 -32.645676 -14.615967 -32.645676 -32.64566l0 0l0 0c0 -18.029724 14.615967 -32.64569 32.645676 -32.64569z" fill-rule="evenodd"/><path fill="#ffffff" d="m103.191605 470.3622l0 0c18.029701 0 32.64566 14.615967 32.64566 32.64566l0 0l0 0c0 8.658173 -3.4394379 16.961731 -9.561691 23.083984c-6.122246 6.1222534 -14.425804 9.561707 -23.08397 9.561707l-48.251972 0l0 0c-18.029705 0 -32.645668 -14.615967 -32.645668 -32.64569l0 0l0 0c0 -18.029694 14.615965 -32.64566 32.645668 -32.64566z" fill-rule="evenodd"/><path fill="#ffffff" d="m587.2021 470.3622l0 0c18.029724 0 32.64569 14.615967 32.64569 32.64566l0 0l0 0c0 8.658173 -3.4394531 16.961731 -9.561707 23.083984c-6.1222534 6.1222534 -14.425781 9.561707 -23.083984 9.561707l-367.55902 0c-18.029709 0 -32.645676 -14.615967 -32.645676 -32.64569l0 0l0 0c0 -18.029694 14.615967 -32.64566 32.645676 -32.64566z" fill-rule="evenodd"/></g></svg>