<svg version="1.1" viewBox="0.0 0.0 414.92913385826773 432.002624671916" fill="none" stroke="none" stroke-linecap="square" stroke-miterlimit="10" xmlns:xlink="http://www.w3.org/1999/xlink" xmlns="http://www.w3.org/2000/svg"><clipPath id="p.0"><path d="m0 0l414.92914 0l0 432.00262l-414.92914 0l0 -432.00262z" clip-rule="nonzero"/></clipPath><g clip-path="url(#p.0)"><path fill="#000000" fill-opacity="0.0" d="m0 0l414.92914 0l0 432.00262l-414.92914 0z" fill-rule="evenodd"/><path fill="#d9534f" d="m62.750656 213.93176l0 0c0 -82.78183 67.47456 -149.88977 150.70866 -149.88977l0 0c39.970413 0 78.30377 15.791916 106.56711 43.901695c28.263367 28.10978 44.14154 66.23484 44.14154 105.988075l0 0c0 82.78183 -67.47455 149.88977 -150.70865 149.88977l0 0c-83.2341 0 -150.70866 -67.10794 -150.70866 -149.88977zm87.47566 0c0 34.470352 28.310379 62.414093 63.233 62.414093c34.922623 0 63.233 -27.94374 63.233 -62.414093c0 -34.470352 -28.310379 -62.41411 -63.233 -62.41411l0 0c-34.922623 0 -63.233 27.943756 -63.233 62.41411z" fill-rule="evenodd"/><path fill="#ffffff" d="m146.48557 213.93045l0 0c0 -35.885468 29.986343 -64.97638 66.97638 -64.97638l0 0c17.763245 0 34.798935 6.845703 47.359436 19.031143c12.560516 12.185425 19.616943 28.712418 19.616943 45.945236l0 0c0 35.885452 -29.986343 64.97638 -66.97638 64.97638l0 0c-36.990036 0 -66.97638 -29.090927 -66.97638 -64.97638z" fill-rule="evenodd"/><path fill="#d9534f" d="m162.0105 46.479576l0 0c0 -16.240532 13.165558 -29.406086 29.406082 -29.406086l44.085464 0l0 0c7.7989807 0 15.278534 3.098133 20.793243 8.612844c5.5147095 5.5147114 8.612854 12.994265 8.612854 20.793242l0 53.975227c0 16.240532 -13.165558 29.406082 -29.406097 29.406082l-44.085464 0c-16.240524 0 -29.406082 -13.16555 -29.406082 -29.406082z" fill-rule="evenodd"/><path fill="#d9534f" d="m162.0105 327.42184l0 0c0 -16.24054 13.165558 -29.406097 29.406082 -29.406097l44.085464 0l0 0c7.7989807 0 15.278534 3.0981445 20.793243 8.612854c5.5147095 5.5147095 8.612854 12.994263 8.612854 20.793243l0 53.97522c0 16.24054 -13.165558 29.406097 -29.406097 29.406097l-44.085464 0c-16.240524 0 -29.406082 -13.165558 -29.406082 -29.406097z" fill-rule="evenodd"/><path fill="#d9534f" d="m140.93852 110.15907l0 0c14.063416 8.122398 18.879257 26.107376 10.7565 40.170578l-22.049469 38.17502l0 0c-3.9006882 6.7533875 -10.324417 11.680695 -17.858055 13.697983c-7.5336304 2.0172882 -15.560051 0.95928955 -22.313538 -2.9412231l-46.741203 -26.995636c-14.063402 -8.122406 -18.879251 -26.107376 -10.756498 -40.170578l22.049479 -38.17502c8.122753 -14.063194 26.108189 -18.879166 40.17159 -10.756767z" fill-rule="evenodd"/><path fill="#d9534f" d="m89.48948 228.68181l0 0c14.063217 -8.117752 32.044464 -3.2980194 40.16224 10.7651825l22.035995 38.17502l0 0c3.898285 6.7533875 4.9541473 14.778748 2.9352875 22.310608c-2.0188599 7.531891 -6.947052 13.953278 -13.700455 17.851562l-46.741882 26.980957c-14.063217 8.117737 -32.044464 3.2980042 -40.162247 -10.765167l-22.035984 -38.17502c-8.117783 -14.063202 -3.2980556 -32.044434 10.76516 -40.162186z" fill-rule="evenodd"/><path fill="#d9534f" d="m332.0611 83.1716l0 0c14.063202 -8.117752 32.044464 -3.2980194 40.16223 10.7651825l22.03598 38.17502l0 0c3.8983154 6.7533875 4.9541626 14.778748 2.9353027 22.310623c-2.0188599 7.5318604 -6.947052 13.953262 -13.70047 17.851547l-46.741882 26.980957c-14.063202 8.117752 -32.044464 3.2980194 -40.16223 -10.7651825l-22.03598 -38.17502c-8.117798 -14.063187 -3.2980652 -32.044403 10.765137 -40.162155z" fill-rule="evenodd"/><path fill="#d9534f" d="m383.5107 255.67088l0 0c14.063385 8.122391 18.879242 26.107376 10.7565 40.170578l-22.049469 38.17502l0 0c-3.9006958 6.7533875 -10.324432 11.680695 -17.858063 13.697968c-7.5336304 2.0173035 -15.560059 0.95932007 -22.313538 -2.9411926l-46.74121 -26.995667c-14.063385 -8.1223755 -18.879242 -26.10736 -10.7565 -40.170563l22.0495 -38.17502c8.122742 -14.063202 26.108185 -18.879166 40.17157 -10.756775z" fill-rule="evenodd"/></g></svg>