<svg version="1.1" viewBox="0.0 0.0 732.7559055118111 653.6745406824147" fill="none" stroke="none" stroke-linecap="square" stroke-miterlimit="10" xmlns:xlink="http://www.w3.org/1999/xlink" xmlns="http://www.w3.org/2000/svg"><clipPath id="p.0"><path d="m0 0l732.7559 0l0 653.67456l-732.7559 0l0 -653.67456z" clip-rule="nonzero"/></clipPath><g clip-path="url(#p.0)"><path fill="#000000" fill-opacity="0.0" d="m0 0l732.7559 0l0 653.67456l-732.7559 0z" fill-rule="evenodd"/><path fill="#ffffff" d="m518.7046 460.89246l0 0c16.591492 7.0405273 24.323425 26.193573 17.269836 42.77951l0 0l0 0c-3.387207 7.9648438 -9.800842 14.2604065 -17.829834 17.501678c-8.029053 3.241272 -17.015808 3.1627808 -24.983337 -0.21820068l-286.09015 -121.40158c-16.591476 -7.0405273 -24.323456 -26.193604 -17.269867 -42.77954l0 0l0 0c7.053589 -16.585938 26.221695 -24.324005 42.81317 -17.283447z" fill-rule="evenodd"/><path fill="#ffffff" d="m490.41672 135.44917l0 0c16.599457 -7.036621 35.7529 0.71873474 42.780426 17.322067l0 0l0 0c3.3746948 7.9732056 3.44458 16.962189 0.1942749 24.989471c-3.2503052 8.027298 -9.554565 14.4353485 -17.525879 17.814438l-286.12424 121.28981c-16.599472 7.036621 -35.752914 -0.7187195 -42.78041 -17.322052l0 0l0 0c-7.0274963 -16.603333 0.7321167 -35.767303 17.331589 -42.803925z" fill-rule="evenodd"/><path fill="#d9534f" d="m487.22833 131.99213l0 0c0 -61.63846 49.967834 -111.6063 111.60632 -111.6063l0 0c29.599792 0 57.987305 11.758488 78.91754 32.68873c20.930237 20.930244 32.68872 49.31774 32.68872 78.91757l0 0c0 61.63846 -49.967834 111.60629 -111.60626 111.60629l0 0c-61.63849 0 -111.60632 -49.967834 -111.60632 -111.60629zm64.89014 0c0 25.800629 20.915527 46.71617 46.716187 46.71617c25.800598 0 46.716125 -20.915543 46.716125 -46.71617c0 -25.800629 -20.915527 -46.716164 -46.716125 -46.716164l0 0c-25.80066 0 -46.716187 20.915535 -46.716187 46.716164z" fill-rule="evenodd"/><path fill="#d9534f" d="m20.464567 324.64304l0 0c0 -61.63846 49.967842 -111.60629 111.60629 -111.60629l0 0c29.599838 0 57.987335 11.758484 78.91757 32.688736c20.930252 20.930222 32.688736 49.317734 32.688736 78.91756l0 0c0 61.63846 -49.96785 111.60629 -111.60631 111.60629l0 0c-61.63845 0 -111.60629 -49.967834 -111.60629 -111.60629zm64.89013 0c0 25.800629 20.915543 46.716187 46.716164 46.716187c25.800629 0 46.71617 -20.915558 46.71617 -46.716187c0 -25.800629 -20.915543 -46.716156 -46.71617 -46.716156l0 0c-25.800621 0 -46.716164 20.915527 -46.716164 46.716156z" fill-rule="evenodd"/><path fill="#d9534f" d="m487.22833 517.29395l0 0c0 -61.638428 49.967834 -111.60629 111.60632 -111.60629l0 0c29.599792 0 57.987305 11.758484 78.91754 32.68875c20.930237 20.930237 32.68872 49.31772 32.68872 78.91754l0 0c0 61.63849 -49.967834 111.60632 -111.60626 111.60632l0 0c-61.63849 0 -111.60632 -49.967834 -111.60632 -111.60632zm64.89014 0c0 25.80066 20.915527 46.716187 46.716187 46.716187c25.800598 0 46.716125 -20.915527 46.716125 -46.716187c0 -25.800598 -20.915527 -46.716156 -46.716125 -46.716156l0 0c-25.80066 0 -46.716187 20.915558 -46.716187 46.716156z" fill-rule="evenodd"/></g></svg>