<svg version="1.1" viewBox="0.0 0.0 755.7139107611548 520.7086614173228" fill="none" stroke="none" stroke-linecap="square" stroke-miterlimit="10" xmlns:xlink="http://www.w3.org/1999/xlink" xmlns="http://www.w3.org/2000/svg"><clipPath id="p.0"><path d="m0 0l755.7139 0l0 520.7087l-755.7139 0l0 -520.7087z" clip-rule="nonzero"/></clipPath><g clip-path="url(#p.0)"><path fill="#000000" fill-opacity="0.0" d="m0 0l755.7139 0l0 520.7087l-755.7139 0z" fill-rule="evenodd"/><path fill="#ffffff" d="m107.64438 321.4564l0 0c-8.137032 -72.40556 13.868782 -142.61746 57.715347 -184.14696c43.846558 -41.529488 102.86034 -48.055702 154.77727 -17.1165c51.91693 30.939194 88.835175 94.634796 96.8266 167.05646l-65.48297 7.1273804l0 0c-5.4343567 -49.00084 -27.483124 -92.4203 -57.829865 -113.8813c-30.34674 -21.460999 -64.373886 -17.697998 -89.24696 9.869644c-24.873062 27.567657 -36.807373 74.74524 -31.301468 123.73816z" fill-rule="evenodd"/><path fill="#ffffff" d="m655.012 222.13174l0 0c18.208984 110.81598 -35.47461 211.98453 -120.03381 226.20795c-84.55917 14.223419 -168.11331 -63.86087 -186.82297 -174.59262l65.73181 -11.318787c12.495544 74.52542 61.718536 128.26242 110.04251 120.13403c48.324036 -8.128418 77.5177 -75.05563 65.2652 -149.62192z" fill-rule="evenodd"/><path fill="#ffffff" d="m159.02667 465.16785l0 0c-0.75949097 18.012573 -15.977051 31.994171 -33.989357 31.22879l0 0l0 0c-8.649818 -0.3675232 -16.800476 -4.156189 -22.65892 -10.532532c-5.858444 -6.3763123 -8.944786 -14.817963 -8.5800705 -23.467896l5.4701004 -129.73138c0.75949097 -18.012573 15.977051 -31.994171 33.989357 -31.22882l0 0l0 0c18.012314 0.76538086 31.99849 15.987915 31.238983 34.000458z" fill-rule="evenodd"/><path fill="#ffffff" d="m655.5059 216.27419l0 0c0.7739258 18.011948 -13.200562 33.233963 -31.21289 33.99933l0 0l0 0c-8.649841 0.3675537 -17.093018 -2.7160187 -23.472107 -8.572342c-6.3791504 -5.8563232 -10.171692 -14.005692 -10.543335 -22.655334l-5.5754395 -129.7651c-0.77386475 -18.011948 13.200623 -33.233974 31.212952 -33.999344l0 0l0 0c18.012268 -0.7653694 33.241516 13.215744 34.01538 31.227684z" fill-rule="evenodd"/><path fill="#d9534f" d="m76.39631 367.92105l0 0c-17.699184 3.4529724 -34.846306 -8.095856 -38.29917 -25.795074l0 0l0 0c-1.6581268 -8.499451 0.12805176 -17.30951 4.9655952 -24.492035c4.8375473 -7.182556 12.330189 -12.1492 20.829636 -13.807404l627.8426 -122.48773c17.699158 -3.4529877 34.846313 8.09584 38.299133 25.79506l0 0l0 0c3.4528809 17.699203 -8.096008 34.846436 -25.795227 38.299423z" fill-rule="evenodd"/></g></svg>