<svg version="1.1" viewBox="0.0 0.0 492.76640419947506 527.8713910761155" fill="none" stroke="none" stroke-linecap="square" stroke-miterlimit="10" xmlns:xlink="http://www.w3.org/1999/xlink" xmlns="http://www.w3.org/2000/svg"><clipPath id="p.0"><path d="m0 0l492.76642 0l0 527.8714l-492.76642 0l0 -527.8714z" clip-rule="nonzero"/></clipPath><g clip-path="url(#p.0)"><path fill="#000000" fill-opacity="0.0" d="m0 0l492.76642 0l0 527.8714l-492.76642 0z" fill-rule="evenodd"/><path fill="#ffffff" d="m396.88977 55.490814l0 0c0 -18.01231 14.601868 -32.614174 32.614166 -32.614174l0 0l0 0c8.649811 0 16.945374 3.4361267 23.061707 9.552471c6.116333 6.1163445 9.55246 14.411884 9.55246 23.061703l0 58.078743c0 18.012306 -14.601868 32.614174 -32.614166 32.614174l0 0l0 0c-18.012299 0 -32.614166 -14.601868 -32.614166 -32.614174z" fill-rule="evenodd"/><path fill="#ffffff" d="m54.953793 88.10499l0 0c-18.01231 0 -32.614174 -14.601868 -32.614174 -32.614174l0 0l0 0c0 -8.649818 3.4361267 -16.945358 9.552471 -23.061703c6.1163445 -6.1163445 14.411884 -9.552471 23.061703 -9.552471l374.55118 0c18.012299 0 32.614166 14.601864 32.614166 32.614174l0 0l0 0c0 18.012306 -14.601868 32.614174 -32.614166 32.614174z" fill-rule="evenodd"/><path fill="#ffffff" d="m236.42506 236.59799l0 0c12.732986 -12.732986 33.377243 -12.732986 46.110245 0l0 0l0 0c6.1145935 6.1145935 9.549744 14.407776 9.549744 23.055115c0 8.647339 -3.4351501 16.940521 -9.549744 23.055115l-204.59843 204.59842c-12.732994 12.733002 -33.377247 12.733002 -46.110237 0l0 0l0 0c-12.73299 -12.732971 -12.73299 -33.377228 0 -46.11023z" fill-rule="evenodd"/><path fill="#ffffff" d="m396.88846 406.60104l0 0c0 -18.012299 14.601868 -32.614166 32.614166 -32.614166l0 0l0 0c8.649811 0 16.945374 3.4361267 23.061707 9.55246c6.116333 6.1163635 9.55246 14.411896 9.55246 23.061707l0 58.078735c0 18.01233 -14.601868 32.614197 -32.614166 32.614197l0 0l0 0c-18.012299 0 -32.614166 -14.601868 -32.614166 -32.614197z" fill-rule="evenodd"/><path fill="#ffffff" d="m54.952618 497.29398l0 0c-18.01231 0 -32.614174 -14.601868 -32.614174 -32.614197l0 0l0 0c0 -8.649811 3.4361267 -16.945343 9.552471 -23.061707c6.1163445 -6.116333 14.411888 -9.55246 23.061703 -9.55246l374.55118 0c18.01233 0 32.614197 14.601868 32.614197 32.614166l0 0l0 0c0 18.01233 -14.601868 32.614197 -32.614197 32.614197z" fill-rule="evenodd"/><path fill="#d9534f" d="m31.826637 78.40901l0 0c-12.73299 -12.732986 -12.73299 -33.377247 0 -46.110237l0 0l0 0c6.1145973 -6.1145954 14.407772 -9.549742 23.055119 -9.549742c8.6473465 0 16.940517 3.4351463 23.055119 9.549742l204.59843 204.59842c12.732971 12.732986 12.732971 33.377243 0 46.110245l0 0l0 0c-12.733002 12.732971 -33.37726 12.732971 -46.110245 0z" fill-rule="evenodd"/></g></svg>