<?xml version="1.0" encoding="UTF-8" standalone="no"?>
<svg
   xmlns:dc="http://purl.org/dc/elements/1.1/"
   xmlns:cc="http://creativecommons.org/ns#"
   xmlns:rdf="http://www.w3.org/1999/02/22-rdf-syntax-ns#"
   xmlns:svg="http://www.w3.org/2000/svg"
   xmlns="http://www.w3.org/2000/svg"
   xmlns:sodipodi="http://sodipodi.sourceforge.net/DTD/sodipodi-0.dtd"
   xmlns:inkscape="http://www.inkscape.org/namespaces/inkscape"
   version="1.1"
   viewBox="0 0 760.09711 749.45669"
   stroke-miterlimit="10"
   id="svg35"
   sodipodi:docname="Virus.svg"
   width="760.09711"
   height="749.45667"
   style="fill:none;stroke:none;stroke-linecap:square;stroke-miterlimit:10"
   inkscape:export-filename="/home/crekowski/MyProjects/corneliusboehm.github.io/img/Virus2.svg.png"
   inkscape:export-xdpi="600"
   inkscape:export-ydpi="600"
   inkscape:version="0.92.5 (2060ec1f9f, 2020-04-08)">
  <metadata
     id="metadata41">
    <rdf:RDF>
      <cc:Work
         rdf:about="">
        <dc:format>image/svg+xml</dc:format>
        <dc:type
           rdf:resource="http://purl.org/dc/dcmitype/StillImage" />
        <dc:title></dc:title>
      </cc:Work>
    </rdf:RDF>
  </metadata>
  <defs
     id="defs39" />
  <sodipodi:namedview
     pagecolor="#ffffff"
     bordercolor="#666666"
     borderopacity="1"
     objecttolerance="10"
     gridtolerance="10"
     guidetolerance="10"
     inkscape:pageopacity="0"
     inkscape:pageshadow="2"
     inkscape:window-width="1901"
     inkscape:window-height="876"
     id="namedview37"
     showgrid="false"
     inkscape:pagecheckerboard="true"
     fit-margin-bottom="-0.1"
     inkscape:zoom="0.62978958"
     inkscape:cx="518.40272"
     inkscape:cy="381.77098"
     inkscape:window-x="422"
     inkscape:window-y="1068"
     inkscape:window-maximized="0"
     inkscape:current-layer="svg35">
    <inkscape:grid
       type="xygrid"
       id="grid43" />
  </sodipodi:namedview>
  <clipPath
     id="p.0">
    <path
       d="M 0,0 H 979.0971 V 749.45667 H 0 Z"
       id="path2"
       inkscape:connector-curvature="0"
       style="clip-rule:nonzero" />
  </clipPath>
  <g
     clip-path="url(#p.0)"
     id="g33"
     transform="translate(-69.864604,1.5878319)">
    <path
       d="M 0,0 H 979.0971 V 749.45667 H 0 Z"
       id="path5"
       inkscape:connector-curvature="0"
       style="fill:#000000;fill-opacity:0;fill-rule:evenodd" />
    <path
       d="m 426.9475,82.87911 v 0 c 0,-18.029701 14.61597,-32.645668 32.64566,-32.645668 v 0 0 c 8.65817,0 16.96173,3.439445 23.08398,9.561695 6.12226,6.12225 9.56168,14.425808 9.56168,23.083973 v 84.09449 c 0,18.02971 -14.61594,32.64568 -32.64566,32.64568 v 0 0 c -18.02969,0 -32.64566,-14.61597 -32.64566,-32.64568 z"
       id="path7"
       inkscape:connector-curvature="0"
       style="fill:#ffffff;fill-rule:evenodd" />
    <path
       d="m 430.74344,95.565704 v 0 c -18.03842,0 -32.64734,-14.623009 -32.62994,-32.661415 v 0 0 c 0.008,-8.662346 3.45748,-16.969906 9.58859,-23.095108 6.1311,-6.125206 14.44198,-9.566309 23.10434,-9.566309 h 57.63779 c 18.03839,0 32.64734,14.623014 32.62994,32.661415 v 0 0 c -0.0174,18.038406 -14.65454,32.661415 -32.69296,32.661415 z"
       id="path9"
       inkscape:connector-curvature="0"
       style="fill:#ffffff;fill-rule:evenodd" />
    <path
       d="m 724.1595,228.29657 v 0 c 16.43701,-7.41261 35.76898,-0.096 43.17914,16.34206 v 0 0 c 3.55847,7.89384 3.83563,16.87846 0.77045,24.97731 -3.06519,8.09884 -9.22162,14.64852 -17.11493,18.20819 l -76.66535,34.57388 c -16.43701,7.41263 -35.76898,0.096 -43.17914,-16.34207 v 0 0 c -7.41021,-16.43808 -0.0925,-35.77289 16.34448,-43.18549 z"
       id="path11"
       inkscape:connector-curvature="0"
       style="fill:#ffffff;fill-rule:evenodd" />
    <path
       d="m 714.155,236.96739 v 0 c -7.41437,-16.44098 -0.0922,-35.7691 16.35461,-43.17059 v 0 0 c 7.89801,-3.55432 16.88697,-3.82669 24.98938,-0.75721 8.10242,3.06949 14.65454,9.22942 18.21509,17.12465 l 23.70136,52.55646 v 0 c 7.41436,16.44098 0.0922,35.76911 -16.35462,43.1706 v 0 0 c -16.44677,7.40149 -35.7901,0.0735 -43.20447,-16.36747 z"
       id="path13"
       inkscape:connector-curvature="0"
       style="fill:#ffffff;fill-rule:evenodd" />
    <path
       d="m 164.94113,472.03525 v 0 c -17.49992,4.33698 -35.20467,-6.3331 -39.54467,-23.83227 v 0 0 c -2.08414,-8.40339 -0.74455,-17.28995 3.7241,-24.70472 4.46864,-7.41479 11.70027,-12.75039 20.10403,-14.8331 l 81.63507,-20.23144 c 17.49991,-4.33698 35.20467,6.3331 39.54466,23.83227 v 0 0 c 4.34,17.49915 -6.32821,35.20084 -23.82812,39.53781 z"
       id="path15"
       inkscape:connector-curvature="0"
       style="fill:#ffffff;fill-rule:evenodd" />
    <path
       d="m 176.34302,465.28745 v 0 c 4.33994,17.51227 -6.34183,35.21295 -23.85838,39.53555 v 0 0 c -8.41175,2.07578 -17.30689,0.7258 -24.72857,-3.75293 -7.4217,-4.47876 -12.762,-11.71939 -14.84612,-20.12909 L 99.051455,425.01996 v 0 C 94.71152,407.5077 105.39328,389.80701 122.90984,385.48441 v 0 0 c 17.51655,-4.3226 35.23475,6.36972 39.57469,23.88202 z"
       id="path17"
       inkscape:connector-curvature="0"
       style="fill:#ffffff;fill-rule:evenodd" />
    <path
       d="m 545.48444,655.7205 v 0 c 3.25031,17.73444 -8.49097,34.74799 -26.22498,38.00079 v 0 0 c -8.51614,1.56208 -17.30355,-0.323 -24.4291,-5.24041 -7.12555,-4.91742 -12.00556,-12.46448 -13.56641,-20.9809 l -15.15854,-82.70703 c -3.25037,-17.73444 8.49094,-34.74799 26.22495,-38.00079 v 0 0 c 17.73397,-3.25281 34.74514,8.48681 37.99551,26.22131 z"
       id="path19"
       inkscape:connector-curvature="0"
       style="fill:#ffffff;fill-rule:evenodd" />
    <path
       d="m 539.47095,643.92755 v 0 c 17.73962,-3.25226 34.74323,8.49457 37.97864,26.23724 v 0 0 c 1.55371,8.52033 -0.34027,17.31214 -5.26538,24.44129 -4.92511,7.12915 -12.47791,12.01166 -20.99677,13.57342 l -56.70404,10.39576 v 0 c -17.73959,3.25225 -34.74322,-8.49457 -37.97867,-26.23725 v 0 0 c -3.23544,-17.74267 8.52252,-34.76245 26.26215,-38.01471 z"
       id="path21"
       inkscape:connector-curvature="0"
       style="fill:#ffffff;fill-rule:evenodd" />
    <path
       d="m 308.81335,213.24101 v 0 c 13.9928,11.36914 16.121,31.93011 4.75351,45.92424 v 0 0 c -5.45886,6.72018 -13.3635,10.99634 -21.97495,11.88767 -8.61145,0.89135 -17.22433,-1.67508 -23.9439,-7.13474 l -47.59537,-38.67123 c -13.99278,-11.36914 -16.12099,-31.93012 -4.7535,-45.92423 v 0 0 c 11.3675,-13.99411 31.92608,-16.12208 45.91884,-4.75294 z"
       id="path23"
       inkscape:connector-curvature="0"
       style="fill:#ffffff;fill-rule:evenodd" />
    <path
       d="m 689.2432,542.5009 v 0 c 13.26282,12.21191 14.11542,32.86383 1.90424,46.12738 v 0 0 c -5.86402,6.36938 -14.01789,10.14825 -22.66797,10.50537 -8.65009,0.35706 -17.08771,-2.73688 -23.45673,-8.60126 l -42.99469,-39.58777 v 0 c -13.26282,-12.21191 -14.11536,-32.86383 -1.90423,-46.12738 v 0 0 c 12.21118,-13.26352 32.86187,-14.11602 46.12475,-1.90414 z"
       id="path25"
       inkscape:connector-curvature="0"
       style="fill:#ffffff;fill-rule:evenodd" />
    <path
       d="m 426.62653,296.29617 v 0 c 13.2655,12.20902 14.12021,32.85861 1.90906,46.12213 v 0 0 c -5.86399,6.36939 -14.0184,10.14883 -22.66938,10.5069 -8.65097,0.35806 -17.08984,-2.73456 -23.46014,-8.59754 l -1.00079,-0.92108 v 0 c -13.26547,-12.20901 -14.12021,-32.85861 -1.90906,-46.12213 v 0 0 c 12.21115,-13.26352 32.86404,-14.11838 46.12955,-1.90936 z"
       id="path27"
       inkscape:connector-curvature="0"
       style="fill:#ffffff;fill-rule:evenodd" />
    <path
       d="m 455.98087,421.60065 v 0 c 13.2655,12.20901 14.12021,32.85861 1.90906,46.12213 v 0 0 c -5.86402,6.36938 -14.01844,10.1488 -22.66938,10.5069 -8.65097,0.35806 -17.08984,-2.73456 -23.46014,-8.59754 l -1.00079,-0.92108 v 0 c -13.26551,-12.20901 -14.12021,-32.85861 -1.90906,-46.12213 v 0 0 c 12.21115,-13.26355 32.86404,-14.11838 46.12952,-1.90936 z"
       id="path29"
       inkscape:connector-curvature="0"
       style="fill:#ffffff;fill-rule:evenodd" />
    <path
       d="m 226.17586,375.30447 v 0 c 0,-128.20834 104.5045,-232.14174 233.41731,-232.14174 v 0 c 61.90616,0 121.27676,24.45772 165.051,67.99274 43.77423,43.53502 68.36633,102.58116 68.36633,164.149 v 0 c 0,128.20831 -104.50452,232.1417 -233.41733,232.1417 v 0 c -128.91281,0 -233.41731,-103.93338 -233.41731,-232.1417 z m 65.26433,0 v 0 c 0,92.16385 75.28467,166.87741 168.15298,166.87741 92.86832,0 168.15298,-74.71356 168.15298,-166.87741 0,-92.16385 -75.28467,-166.87741 -168.15298,-166.87741 v 0 c -92.86832,0 -168.15298,74.71356 -168.15298,166.87741 z"
       id="path31"
       inkscape:connector-curvature="0"
       style="fill:#d9534f;fill-rule:evenodd" />
  </g>
</svg>
