<svg version="1.1" viewBox="0.0 0.0 979.0971128608924 749.4566929133858" fill="none" stroke="none" stroke-linecap="square" stroke-miterlimit="10" xmlns:xlink="http://www.w3.org/1999/xlink" xmlns="http://www.w3.org/2000/svg"><clipPath id="p.0"><path d="m0 0l979.0971 0l0 749.45667l-979.0971 0l0 -749.45667z" clip-rule="nonzero"/></clipPath><g clip-path="url(#p.0)"><path fill="#000000" fill-opacity="0.0" d="m0 0l979.0971 0l0 749.45667l-979.0971 0z" fill-rule="evenodd"/><path fill="#ffffff" d="m426.9475 82.87911l0 0c0 -18.029701 14.615967 -32.645668 32.64566 -32.645668l0 0l0 0c8.658173 0 16.961731 3.4394455 23.083984 9.561695c6.1222534 6.1222496 9.561676 14.425808 9.561676 23.083973l0 84.09449c0 18.029709 -14.615936 32.645676 -32.64566 32.645676l0 0l0 0c-18.029694 0 -32.64566 -14.615967 -32.64566 -32.645676z" fill-rule="evenodd"/><path fill="#ffffff" d="m430.74344 95.565704l0 0c-18.038422 0 -32.64734 -14.623009 -32.629944 -32.661415l0 0l0 0c0.008361816 -8.662346 3.457489 -16.969906 9.588593 -23.095108c6.1311035 -6.125206 14.441986 -9.566309 23.10434 -9.566309l57.637787 0c18.038391 0 32.64734 14.623014 32.629944 32.661415l0 0l0 0c-0.01739502 18.038406 -14.654541 32.661415 -32.692963 32.661415z" fill-rule="evenodd"/><path fill="#ffffff" d="m724.1595 228.29657l0 0c16.437012 -7.412613 35.768982 -0.09602356 43.17914 16.342056l0 0l0 0c3.5584717 7.8938446 3.8356323 16.878464 0.7704468 24.97731c-3.0651855 8.098846 -9.221619 14.648529 -17.11493 18.20819l-76.665344 34.573883c-16.437012 7.412628 -35.768982 0.0960083 -43.17914 -16.342072l0 0l0 0c-7.4102173 -16.43808 -0.0925293 -35.77289 16.344482 -43.185486z" fill-rule="evenodd"/><path fill="#ffffff" d="m714.155 236.96739l0 0c-7.4143677 -16.440979 -0.092163086 -35.769104 16.354614 -43.170593l0 0l0 0c7.8980103 -3.5543213 16.886963 -3.8266907 24.98938 -0.75720215c8.102417 3.0694885 14.654541 9.229416 18.215088 17.12465l23.701355 52.556458l0 0c7.4143677 16.440979 0.092163086 35.769104 -16.354614 43.170593l0 0l0 0c-16.446777 7.4014893 -35.7901 0.073516846 -43.204468 -16.367462z" fill-rule="evenodd"/><path fill="#ffffff" d="m164.94113 472.03525l0 0c-17.499924 4.336975 -35.204666 -6.3330994 -39.54467 -23.832275l0 0l0 0c-2.0841446 -8.403381 -0.744545 -17.289948 3.7240982 -24.704712c4.468643 -7.414795 11.700272 -12.750397 20.104034 -14.833099l81.63507 -20.231445c17.499908 -4.336975 35.204666 6.3330994 39.544662 23.832275l0 0l0 0c4.3399963 17.499146 -6.3282166 35.200836 -23.828125 39.53781z" fill-rule="evenodd"/><path fill="#ffffff" d="m176.34302 465.28745l0 0c4.3399353 17.512268 -6.3418274 35.21295 -23.858383 39.535553l0 0l0 0c-8.411743 2.0757751 -17.306885 0.72579956 -24.728569 -3.7529297c-7.4216995 -4.47876 -12.762001 -11.719391 -14.846115 -20.12909l-13.858498 -55.92102l0 0c-4.3399353 -17.512268 6.3418274 -35.21295 23.858383 -39.535553l0 0l0 0c17.516556 -4.3226013 35.234756 6.3697205 39.57469 23.882019z" fill-rule="evenodd"/><path fill="#ffffff" d="m545.48444 655.7205l0 0c3.2503052 17.734436 -8.490967 34.747986 -26.224976 38.000793l0 0l0 0c-8.516144 1.5620728 -17.303558 -0.32299805 -24.429108 -5.2404175c-7.1255493 -4.9174194 -12.005554 -12.464478 -13.566406 -20.980896l-15.158539 -82.70703c-3.2503662 -17.734436 8.490936 -34.747986 26.224945 -38.000793l0 0l0 0c17.733978 -3.2528076 34.745148 8.486816 37.995514 26.221313z" fill-rule="evenodd"/><path fill="#ffffff" d="m539.47095 643.92755l0 0c17.739624 -3.2522583 34.743225 8.494568 37.978638 26.237244l0 0l0 0c1.5537109 8.520325 -0.340271 17.312134 -5.265381 24.441284c-4.92511 7.1291504 -12.477905 12.011658 -20.996765 13.573425l-56.70404 10.395752l0 0c-17.739594 3.2522583 -34.743225 -8.494568 -37.97867 -26.237244l0 0l0 0c-3.235443 -17.742676 8.522522 -34.76245 26.262146 -38.01471z" fill-rule="evenodd"/><path fill="#ffffff" d="m308.81335 213.24101l0 0c13.992798 11.369141 16.121002 31.930115 4.7535095 45.92424l0 0l0 0c-5.4588623 6.7201843 -13.363495 10.996338 -21.974945 11.887665c-8.61145 0.8913574 -17.224335 -1.6750793 -23.943909 -7.134735l-47.595367 -38.671234c-13.992783 -11.369141 -16.120987 -31.930115 -4.7534943 -45.924225l0 0l0 0c11.367493 -13.99411 31.926071 -16.122086 45.91884 -4.752945z" fill-rule="evenodd"/><path fill="#ffffff" d="m689.2432 542.5009l0 0c13.262817 12.211914 14.1154175 32.86383 1.9042358 46.12738l0 0l0 0c-5.8640137 6.369385 -14.017883 10.148254 -22.667969 10.505371c-8.650085 0.35705566 -17.087708 -2.7368774 -23.456726 -8.601257l-42.99469 -39.58777l0 0c-13.262817 -12.211914 -14.115356 -32.86383 -1.9042358 -46.12738l0 0l0 0c12.211182 -13.263519 32.861877 -14.116028 46.124756 -1.9041443z" fill-rule="evenodd"/><path fill="#ffffff" d="m426.62653 296.29617l0 0c13.265503 12.209015 14.120209 32.858612 1.9090576 46.12213l0 0l0 0c-5.863983 6.369385 -14.018402 10.148834 -22.669373 10.506897c-8.65097 0.35806274 -17.089844 -2.734558 -23.460144 -8.597534l-1.0007935 -0.92108154l0 0c-13.265472 -12.209015 -14.120209 -32.858612 -1.9090576 -46.12213l0 0l0 0c12.211151 -13.263519 32.864044 -14.118378 46.129547 -1.9093628z" fill-rule="evenodd"/><path fill="#ffffff" d="m455.98087 421.60065l0 0c13.265503 12.209015 14.120209 32.858612 1.9090576 46.12213l0 0l0 0c-5.8640137 6.369385 -14.018433 10.148804 -22.669373 10.506897c-8.65097 0.35806274 -17.089844 -2.734558 -23.460144 -8.597534l-1.0007935 -0.92108154l0 0c-13.265503 -12.209015 -14.120209 -32.858612 -1.9090576 -46.12213l0 0l0 0c12.211151 -13.26355 32.864044 -14.118378 46.129517 -1.9093628z" fill-rule="evenodd"/><path fill="#d9534f" d="m226.17586 375.30447l0 0c0 -128.20834 104.5045 -232.14174 233.41731 -232.14174l0 0c61.90616 0 121.276764 24.457718 165.051 67.99274c43.77423 43.53502 68.36633 102.58116 68.36633 164.149l0 0c0 128.20831 -104.50452 232.1417 -233.41733 232.1417l0 0c-128.91281 0 -233.41731 -103.93338 -233.41731 -232.1417zm65.26433 0l0 0c0 92.16385 75.28467 166.87741 168.15298 166.87741c92.86832 0 168.15298 -74.71356 168.15298 -166.87741c0 -92.16385 -75.28467 -166.87741 -168.15298 -166.87741l0 0c-92.86832 0 -168.15298 74.71356 -168.15298 166.87741z" fill-rule="evenodd"/></g></svg>