<svg version="1.1" viewBox="0.0 0.0 768.4776902887139 693.5328083989501" fill="none" stroke="none" stroke-linecap="square" stroke-miterlimit="10" xmlns:xlink="http://www.w3.org/1999/xlink" xmlns="http://www.w3.org/2000/svg"><clipPath id="p.0"><path d="m0 0l768.47766 0l0 693.53284l-768.47766 0l0 -693.53284z" clip-rule="nonzero"/></clipPath><g clip-path="url(#p.0)"><path fill="#000000" fill-opacity="0.0" d="m0 0l768.47766 0l0 693.53284l-768.47766 0z" fill-rule="evenodd"/><path fill="#d9534f" d="m566.51575 487.41208l0 0c18.029724 0 32.64569 14.615967 32.64569 32.64566l0 0l0 0c0 8.658203 -3.4394531 16.961731 -9.561707 23.083984c-6.1222534 6.1222534 -14.425842 9.561707 -23.083984 9.561707l-367.55905 0c-18.029709 0 -32.645676 -14.615967 -32.645676 -32.64569l0 0l0 0c0 -18.029694 14.615967 -32.64566 32.645676 -32.64566z" fill-rule="evenodd"/><path fill="#ffffff" d="m189.98425 20.419947l0 0c18.029709 0 32.645676 14.615965 32.645676 32.645668l0 0l0 0c0 8.658169 -3.4394531 16.961727 -9.561707 23.083973c-6.1222534 6.1222534 -14.4257965 9.561699 -23.08397 9.561699l-137.35434 0c-18.029705 0 -32.645668 -14.615967 -32.645668 -32.64567l0 0l0 0c0 -18.029705 14.615965 -32.645668 32.645668 -32.645668z" fill-rule="evenodd"/><path fill="#ffffff" d="m19.984251 53.065617l0 0c0 -18.029705 14.615965 -32.645668 32.645668 -32.645668l0 0l0 0c8.658169 0 16.961723 3.4394455 23.083977 9.561695c6.122246 6.1222515 9.561691 14.425806 9.561691 23.083975l0 137.35434c0 18.029694 -14.615959 32.64566 -32.645668 32.64566l0 0l0 0c-18.029705 0 -32.645668 -14.615967 -32.645668 -32.64566z" fill-rule="evenodd"/><path fill="#d9534f" d="m166.31102 338.99475l0 0c0 -18.029694 14.615967 -32.64566 32.645676 -32.64566l0 0l0 0c8.658173 0 16.961716 3.4394226 23.08397 9.561676c6.1222534 6.1222534 9.561691 14.425812 9.561691 23.083984l0 181.07086c0 18.029724 -14.615952 32.64569 -32.64566 32.64569l0 0l0 0c-18.029709 0 -32.645676 -14.615967 -32.645676 -32.64569z" fill-rule="evenodd"/><path fill="#d9534f" d="m533.87006 338.99475l0 0c0 -18.029694 14.615967 -32.64566 32.64569 -32.64566l0 0l0 0c8.658142 0 16.961731 3.4394226 23.083984 9.561676c6.1222534 6.1222534 9.561707 14.425812 9.561707 23.083984l0 181.07086c0 18.029724 -14.615967 32.64569 -32.64569 32.64569l0 0l0 0c-18.029724 0 -32.64569 -14.615967 -32.64569 -32.64569z" fill-rule="evenodd"/><path fill="#d9534f" d="m361.19775 128.8449l0 0c12.750366 -12.750389 33.42282 -12.750389 46.173218 0l0 0l0 0c6.1229553 6.1229553 9.562775 14.427444 9.562775 23.086609c0 8.659164 -3.4398193 16.963669 -9.562775 23.086624l-181.92126 181.92126c-12.750381 12.750366 -33.422836 12.750366 -46.173233 0l0 0l0 0c-12.750381 -12.750397 -12.750381 -33.42285 0 -46.17325z" fill-rule="evenodd"/><path fill="#d9534f" d="m361.58398 175.92891l0 0c-12.750397 -12.750381 -12.750397 -33.422836 0 -46.173218l0 0l0 0c6.1229553 -6.1229553 14.42746 -9.562798 23.086609 -9.562798c8.65918 0 16.963684 3.4398422 23.086609 9.562798l181.07086 181.07085c12.750427 12.750397 12.750427 33.42285 0 46.17325l0 0l0 0c-12.750366 12.750366 -33.42285 12.750366 -46.173218 0z" fill-rule="evenodd"/><path fill="#ffffff" d="m715.47504 20.419947l0 0c18.029724 0 32.64569 14.615965 32.64569 32.645668l0 0l0 0c0 8.658169 -3.4394531 16.961727 -9.561707 23.083973c-6.1222534 6.1222534 -14.425781 9.561699 -23.083984 9.561699l-137.35431 0c-18.029724 0 -32.64569 -14.615967 -32.64569 -32.64567l0 0l0 0c0 -18.029705 14.615967 -32.645668 32.64569 -32.645668z" fill-rule="evenodd"/><path fill="#ffffff" d="m682.8294 53.065617l0 0c0 -18.029705 14.615967 -32.645668 32.64563 -32.645668l0 0l0 0c8.658203 0 16.961731 3.4394455 23.083984 9.561695c6.1222534 6.1222515 9.561707 14.425806 9.561707 23.083975l0 137.35434c0 18.029694 -14.615967 32.64566 -32.64569 32.64566l0 0l0 0c-18.029663 0 -32.64563 -14.615967 -32.64563 -32.64566z" fill-rule="evenodd"/><path fill="#ffffff" d="m189.98425 609.40155l0 0c18.029709 0 32.645676 14.615967 32.645676 32.64569l0 0l0 0c0 8.658203 -3.4394531 16.961731 -9.561707 23.083984c-6.1222534 6.1222534 -14.4257965 9.561707 -23.08397 9.561707l-137.35434 0c-18.029705 0 -32.645668 -14.615967 -32.645668 -32.64569l0 0l0 0c0 -18.029724 14.615965 -32.64569 32.645668 -32.64569z" fill-rule="evenodd"/><path fill="#ffffff" d="m19.984251 504.6929l0 0c0 -18.029694 14.615965 -32.64566 32.645668 -32.64566l0 0l0 0c8.658169 0 16.961723 3.4394531 23.083977 9.561707c6.122246 6.1222534 9.561691 14.425781 9.561691 23.083954l0 137.35434c0 18.029724 -14.615959 32.64569 -32.645668 32.64569l0 0l0 0c-18.029705 0 -32.645668 -14.615967 -32.645668 -32.64569z" fill-rule="evenodd"/><path fill="#ffffff" d="m715.47504 609.40155l0 0c18.029724 0 32.64569 14.615967 32.64569 32.64569l0 0l0 0c0 8.658203 -3.4394531 16.961731 -9.561707 23.083984c-6.1222534 6.1222534 -14.425781 9.561707 -23.083984 9.561707l-137.35431 0c-18.029724 0 -32.64569 -14.615967 -32.64569 -32.64569l0 0l0 0c0 -18.029724 14.615967 -32.64569 32.64569 -32.64569z" fill-rule="evenodd"/><path fill="#ffffff" d="m682.8294 504.6929l0 0c0 -18.029694 14.615967 -32.64566 32.64563 -32.64566l0 0l0 0c8.658203 0 16.961731 3.4394531 23.083984 9.561707c6.1222534 6.1222534 9.561707 14.425781 9.561707 23.083954l0 137.35434c0 18.029724 -14.615967 32.64569 -32.64569 32.64569l0 0l0 0c-18.029663 0 -32.64563 -14.615967 -32.64563 -32.64569z" fill-rule="evenodd"/></g></svg>