<svg version="1.1" viewBox="0.0 0.0 650.5958005249344 660.1391076115485" fill="none" stroke="none" stroke-linecap="square" stroke-miterlimit="10" xmlns:xlink="http://www.w3.org/1999/xlink" xmlns="http://www.w3.org/2000/svg"><clipPath id="p.0"><path d="m0 0l650.5958 0l0 660.1391l-650.5958 0l0 -660.1391z" clip-rule="nonzero"/></clipPath><g clip-path="url(#p.0)"><path fill="#000000" fill-opacity="0.0" d="m0 0l650.5958 0l0 660.1391l-650.5958 0z" fill-rule="evenodd"/><path fill="#d9534f" d="m391.06564 251.90215l0 0c18.029694 0 32.63861 14.615952 32.629913 32.645676l0 0l0 0c-0.004180908 8.658173 -3.4476318 16.9617 -9.572815 23.083954c-6.1252136 6.1222534 -14.43042 9.561707 -23.088593 9.561707l-212.59843 0c-18.029709 0 -32.63861 -14.615967 -32.629913 -32.64566l0 0l0 0c0.00869751 -18.029724 14.631714 -32.645676 32.661423 -32.645676z" fill-rule="evenodd"/><path fill="#ffffff" d="m19.67979 284.54855l0 0c0 -146.39459 118.67627 -265.07086 265.0709 -265.07086l0 0c70.30115 0 137.72296 27.92703 187.43338 77.63746c49.71042 49.710426 77.63748 117.13224 77.63748 187.43341l0 0c0 146.39459 -118.67627 265.0709 -265.07086 265.0709l0 0c-146.3946 0 -265.0709 -118.6763 -265.0709 -265.0709zm64.95296 0l0 0c0 110.522064 89.59584 200.11789 200.11792 200.11789c110.522064 0 200.11789 -89.595825 200.11789 -200.11789l0 0c0 -110.522064 -89.595825 -200.11789 -200.11789 -200.11789l0 0c-110.52208 0 -200.11792 89.59583 -200.11792 200.11789z" fill-rule="evenodd"/><path fill="#d9534f" d="m317.39633 390.86276l0 0c0 18.029724 -14.615936 32.63864 -32.64566 32.629944l0 0l0 0c-8.658173 -0.004180908 -16.961731 -3.4476318 -23.083954 -9.572845c-6.1222687 -6.1252136 -9.561707 -14.43042 -9.561707 -23.088593l0 -212.59842c0 -18.029709 14.615967 -32.63861 32.64566 -32.629913l0 0l0 0c18.029724 0.00869751 32.64566 14.631714 32.64566 32.661407z" fill-rule="evenodd"/><path fill="#ffffff" d="m618.35974 582.71857l0 0c12.750366 12.750427 12.743347 33.415833 -0.01574707 46.15753l0 0l0 0c-6.127136 6.1187744 -14.435608 9.554565 -23.097717 9.551636c-8.66217 -0.0029907227 -16.968323 -3.444458 -23.091248 -9.567444l-150.33072 -150.33066c-12.750366 -12.750397 -12.743317 -33.415802 0.01574707 -46.1575l0 0l0 0c12.759094 -12.741699 33.4386 -12.734619 46.188995 0.01574707z" fill-rule="evenodd"/></g></svg>